<?xml version="1.0" encoding="utf-8"?>
<!-- Generator: Adobe Illustrator 23.0.1, SVG Export Plug-In . SVG Version: 6.00 Build 0)  -->
<svg version="1.1" id="Layer_1" xmlns="http://www.w3.org/2000/svg" xmlns:xlink="http://www.w3.org/1999/xlink" x="0px" y="0px"
	 viewBox="0 0 219.1 825" style="enable-background:new 0 0 219.1 825;" xml:space="preserve">
<style type="text/css">
	.st0{enable-background:new    ;}
	.st1{fill:url(#SVGID_1_);}
	.st2{fill:url(#SVGID_2_);}
	.st3{fill:url(#SVGID_3_);}
	.st4{fill:url(#SVGID_4_);}
	.st5{opacity:0.5608;fill:url(#SVGID_5_);enable-background:new    ;}
	.st6{fill:url(#SVGID_6_);}
	.st7{fill:url(#SVGID_7_);}
	.st8{fill:url(#SVGID_8_);}
	.st9{fill:#FF65EB;}
	.st10{fill:#FF20CE;}
	.st11{opacity:0.5608;fill:url(#SVGID_9_);enable-background:new    ;}
	.st12{fill:#A5FFFF;}
	.st13{opacity:0.5608;fill:url(#SVGID_10_);enable-background:new    ;}
	.st14{opacity:0.5608;fill:url(#SVGID_11_);enable-background:new    ;}
	.st15{opacity:0.5608;fill:url(#SVGID_12_);enable-background:new    ;}
	.st16{fill:url(#SVGID_13_);}
	.st17{fill:#193164;}
	.st18{fill:#1A6CBE;}
	.st19{fill:#102465;}
	.st20{fill:#00154F;}
	.st21{fill:url(#SVGID_14_);}
	.st22{fill:#1A9BDB;}
	.st23{fill:#103450;}
	.st24{fill:#FFC6A0;}
	.st25{fill:#FDF7FB;}
	.st26{fill:#FFFFFF;}
	.st27{fill:#00EDF9;}
	.st28{opacity:0.6;fill:#00EDF9;enable-background:new    ;}
	.st29{fill:url(#SVGID_15_);}
	.st30{fill:url(#SVGID_16_);}
	.st31{fill:url(#SVGID_17_);}
	.st32{fill:url(#SVGID_18_);}
	.st33{fill:url(#SVGID_19_);}
	.st34{fill:url(#SVGID_20_);}
	.st35{opacity:0.5608;fill:#A5FFFF;enable-background:new    ;}
	.st36{fill:#B4FFFF;}
	.st37{opacity:0.8078;fill:#B8FFFF;enable-background:new    ;}
	.st38{fill:url(#SVGID_21_);}
	.st39{fill:url(#SVGID_22_);}
	.st40{fill:url(#SVGID_23_);}
	.st41{fill:#162A56;}
	.st42{fill:url(#SVGID_24_);}
	.st43{fill:#165DA4;}
	.st44{opacity:0.3;}
	.st45{opacity:0.5608;fill:url(#SVGID_25_);}
	.st46{opacity:0.6;fill:#00EDF9;}
	.st47{opacity:0.5608;fill:url(#SVGID_26_);}
	.st48{fill:url(#SVGID_27_);}
	.st49{fill:url(#SVGID_28_);}
	.st50{fill:url(#SVGID_29_);}
	.st51{opacity:0.4;fill:#1A9BDB;}
	.st52{fill:#011C63;}
	.st53{fill:#FCFEFB;}
	.st54{opacity:0.6;}
	.st55{fill:url(#SVGID_30_);}
	.st56{fill:url(#SVGID_31_);}
	.st57{fill:url(#SVGID_32_);}
	.st58{opacity:0.5608;fill:url(#SVGID_33_);}
	.st59{fill:url(#SVGID_34_);}
	.st60{fill:url(#SVGID_35_);}
	.st61{fill:url(#SVGID_36_);}
</style>
<g>
	<g>
		<g>
			<g class="st0">
				<g>
					<linearGradient id="SVGID_1_" gradientUnits="userSpaceOnUse" x1="126.989" y1="86.1877" x2="92.164" y2="184.6584">
						<stop  offset="0" style="stop-color:#89DAF4"/>
						<stop  offset="1" style="stop-color:#008DD7"/>
					</linearGradient>
					<polygon class="st1" points="219.1,135.5 109.79,198.95 0,135.5 109.79,72.04 					"/>
				</g>
				<linearGradient id="SVGID_2_" gradientUnits="userSpaceOnUse" x1="109.7877" y1="480.2507" x2="219.0991" y2="480.2507">
					<stop  offset="0" style="stop-color:#144188"/>
					<stop  offset="0.9975" style="stop-color:#1A7CDE"/>
				</linearGradient>
				<polygon class="st2" points="219.1,135.5 219.1,761.55 109.79,825 109.79,198.95 				"/>
				<linearGradient id="SVGID_3_" gradientUnits="userSpaceOnUse" x1="0" y1="480.2513" x2="109.7877" y2="480.2513">
					<stop  offset="0" style="stop-color:#144188"/>
					<stop  offset="0.998" style="stop-color:#102465"/>
				</linearGradient>
				<polygon class="st3" points="109.79,198.95 109.79,825 0,761.55 0,135.5 				"/>
			</g>
		</g>
		<polygon class="st9" points="109.79,211.52 219.1,148.06 219.1,146.43 109.79,209.88 		"/>
		<polygon class="st10" points="0,148.06 109.79,211.52 109.79,209.88 0,146.43 		"/>
	</g>
	<g>
		<g class="st0">
			<path class="st41" d="M162.72,118.94c-0.01,0.08-0.01,0.17-0.03,0.25c-0.01,0.07-0.03,0.13-0.05,0.2
				c-0.02,0.08-0.04,0.16-0.07,0.24c-0.02,0.06-0.05,0.13-0.08,0.19c-0.04,0.08-0.07,0.17-0.12,0.25c-0.03,0.06-0.07,0.12-0.11,0.18
				c-0.06,0.09-0.12,0.19-0.19,0.28c-0.04,0.05-0.08,0.11-0.13,0.16c-0.1,0.12-0.21,0.24-0.33,0.36c-0.04,0.04-0.08,0.09-0.13,0.13
				c-0.08,0.07-0.16,0.13-0.24,0.2c-0.07,0.06-0.14,0.12-0.22,0.18c-0.09,0.06-0.19,0.13-0.28,0.19c-0.1,0.06-0.19,0.13-0.3,0.19
				l-66.72,38.78c-3.07,1.78-8.07,1.78-11.16,0l-30.75-17.75c-1.55-0.9-2.33-2.08-2.33-3.26l-0.01,4.08c0,1.18,0.77,2.36,2.33,3.26
				l30.75,17.75c3.09,1.78,8.09,1.78,11.16,0l66.72-38.78c0.03-0.02,0.06-0.04,0.1-0.06c0.07-0.04,0.14-0.09,0.21-0.14
				c0.1-0.06,0.19-0.12,0.28-0.19c0.08-0.06,0.15-0.12,0.22-0.18c0.08-0.07,0.17-0.13,0.24-0.2c0.02-0.01,0.03-0.03,0.05-0.04
				c0.03-0.03,0.05-0.06,0.08-0.09c0.12-0.12,0.23-0.24,0.33-0.36c0.02-0.03,0.05-0.05,0.07-0.08c0.02-0.03,0.03-0.05,0.05-0.08
				c0.07-0.09,0.13-0.18,0.18-0.27c0.02-0.04,0.06-0.08,0.08-0.12c0.01-0.02,0.02-0.04,0.03-0.06c0.04-0.08,0.08-0.16,0.11-0.25
				c0.02-0.05,0.05-0.1,0.07-0.14c0.01-0.02,0.01-0.03,0.01-0.05c0.03-0.08,0.05-0.16,0.07-0.24c0.01-0.05,0.03-0.11,0.05-0.16
				c0-0.01,0-0.03,0-0.04c0.02-0.08,0.02-0.17,0.03-0.25c0-0.05,0.02-0.11,0.02-0.16c0-0.02,0-0.05,0-0.07l0.01-4.08
				C162.74,118.78,162.73,118.86,162.72,118.94z"/>
			<g>
				<linearGradient id="SVGID_4_" gradientUnits="userSpaceOnUse" x1="122.1467" y1="96.6609" x2="76.4203" y2="189.4697">
					<stop  offset="0" style="stop-color:#CDEFFB"/>
					<stop  offset="1" style="stop-color:#89DAF4"/>
				</linearGradient>
				<path class="st4" d="M160.42,115.45c3.09,1.78,3.11,4.68,0.04,6.47l-66.72,38.78c-3.07,1.78-8.07,1.78-11.16,0l-30.75-17.75
					c-3.09-1.78-3.11-4.68-0.04-6.47l66.72-38.78c3.07-1.78,8.07-1.78,11.16,0L160.42,115.45z M92.13,159.77l66.72-38.78
					c2.19-1.27,2.18-3.34-0.03-4.62l-2.77-1.6l-4.18,0.11l-21.21-12.25l0.18-2.42l-2.77-1.6c-2.2-1.27-5.78-1.27-7.97,0L53.38,137.4
					c-2.19,1.27-2.18,3.34,0.03,4.62l30.75,17.75C86.36,161.04,89.94,161.04,92.13,159.77"/>
			</g>
			<g>
				<path class="st43" d="M158.82,116.38c2.2,1.27,2.21,3.34,0.03,4.62l-66.72,38.78c-2.19,1.27-5.76,1.27-7.97,0l-30.75-17.75
					c-2.2-1.27-2.21-3.34-0.03-4.62l66.72-38.78c2.19-1.27,5.77-1.27,7.97,0l2.77,1.6l-0.18,2.42l21.21,12.25l4.18-0.11
					L158.82,116.38z"/>
			</g>
			<g>
				<path class="st43" d="M158.82,116.38c2.2,1.27,2.21,3.34,0.03,4.62l-66.72,38.78c-2.19,1.27-5.76,1.27-7.97,0l-30.75-17.75
					c-2.2-1.27-2.21-3.34-0.03-4.62l66.72-38.78c2.19-1.27,5.77-1.27,7.97,0l2.77,1.6l-0.18,2.42l21.21,12.25l4.18-0.11
					L158.82,116.38z"/>
			</g>
		</g>
	</g>
	<g>
		<g class="st44">
			<path class="st22" d="M74.92,111.68c3.86,2.23,3.88,5.84,0.05,8.06c-3.85,2.24-10.08,2.24-13.94,0.01
				c-3.86-2.23-3.9-5.85-0.05-8.08C64.82,109.44,71.06,109.45,74.92,111.68z"/>
		</g>
		<g>
			<g>
				<path class="st23" d="M62.18,113.4c0,0-0.56,0.07-0.66,0.28c-0.1,0.21-0.16,2.05-0.15,2.3c0,0,1.47,1.44,2.84,2.14
					c1.37,0.7,2.56,1.01,3.09,0.55c0.53-0.46,0.2-0.99-0.93-1.91c-1.13-0.92-2.22-3.37-2.22-3.37
					C64.15,113.4,62.18,113.4,62.18,113.4z"/>
				<path class="st23" d="M69.39,110.5c0,0-0.56,0.07-0.66,0.28c-0.1,0.21-0.16,2.05-0.15,2.3c0,0,1.47,1.44,2.84,2.14
					c1.37,0.7,2.56,1.01,3.09,0.55c0.53-0.46,0.2-0.99-0.93-1.91c-1.13-0.92-2.22-3.37-2.22-3.37
					C71.36,110.5,69.39,110.5,69.39,110.5z"/>
				<path class="st24" d="M73.37,83.86c0,0-0.04,0.73-0.07,0.87c-0.03,0.14-0.66,1.07-0.67,1.38c-0.01,0.31,0.32,0.56,0.32,0.56
					s0.01,0.68,0.08,0.82c0.07,0.14,0.69,0.05,0.76,0.09c0.07,0.04,0.47,0.29,0.74,0.18c0.27-0.11,1.01-0.34,1.1-0.44
					c0.09-0.09,0.17-2.37-0.17-4.11c-0.11-0.58-0.63-14.08-0.94-13.98C73.89,69.42,73.37,83.86,73.37,83.86z"/>
				<path class="st26" d="M75.34,70.82c-0.28-1.33-0.62-2.88-0.91-3.95c-0.61-2.25-1.06-4-2.37-4.03l-0.45,7.63
					c0,0,0.14,1.15,0.38,2.45C73.17,72.34,74.26,71.59,75.34,70.82z"/>
				<path class="st23" d="M61.34,85.23l-0.1,28.73c0,0,1.59,0.97,3.43-0.07c0,0,3.25-24.82,3.31-25.4
					c0.05-0.54,0.46,22.66,0.46,22.66s2.01,1.16,3.55-0.41l1.81-27.48L61.34,85.23z"/>
				<path class="st26" d="M64.2,63.77c0,0-2.14,0.79-4.04,2.35l1.18,19.12c0,0,2.47,1.81,7.53,0.49c4.12-1.08,5.2-2.81,5.2-2.81
					s0.38-9.39-0.01-13.37c-0.39-3.97-2-6.7-2-6.7c-0.9-0.27-2.88-0.16-2.88-0.16L64.2,63.77z"/>
				<path class="st23" d="M69.52,52.11c-0.88-0.32-1.62-0.31-2.58-0.21c-1.81,0.19-3.33,1.07-3.63,3.01
					c-0.23,1.46,0.32,2.95,0.89,4.26c0.76,1.74,1.3,1.11,1.3,1.11c1.48-0.59,2.95-1.19,4.43-1.78c0.41-0.16,1.02-0.29,1.36-0.58
					c0.54-0.47,0.36-1.28,0.46-1.92c0.13-0.85,0.26-1.57-0.21-2.36c-0.37-0.63-0.99-1.08-1.65-1.37
					C69.77,52.21,69.64,52.16,69.52,52.11z"/>
				<path class="st24" d="M65.03,62.84l-0.11-3.83c0,0-0.96-0.07-0.8-1.13c0.17-1.05,1.15-0.36,1.33-0.05c0,0,0.22-3.63,2.15-3.98
					c1.92-0.35,3.79,0.06,3.84,1c0.05,0.94,0.11,4.21,0,5.43c-0.11,1.22-1.06,1.72-2.82,1.67l0.12,1.97c0,0-0.88,0.65-3.34,0.05
					L65.03,62.84z"/>
				<path class="st26" d="M68.63,62.36c0,0,0.34-0.01,0.47,0.07c0.13,0.07,0.83,0.78,0.85,1.55c0.02,0.78-0.3,1.66-0.3,1.66
					l-1.59-1.44l-1,1.94c0,0-0.63-0.12-1.48-0.77c-0.86-0.65-1.37-1.61-1.37-1.61c0.28-0.7,0.46-1.12,0.46-1.12
					c0.07-0.16,0.37-0.24,0.37-0.24s1.7,1.54,3.03,1.62C68.06,64.03,68.53,63.81,68.63,62.36z"/>
				<path class="st24" d="M61.32,86.53c0,0,0.19,0.71,0.24,0.84c0.06,0.13,0.86,0.91,0.93,1.21c0.07,0.3-0.2,0.62-0.2,0.62
					s0.13,0.67,0.09,0.82s-0.67,0.19-0.73,0.24c-0.06,0.05-0.4,0.38-0.69,0.32c-0.28-0.06-1.06-0.13-1.17-0.21
					c-0.11-0.07-0.64-2.29-0.66-4.06c-0.01-0.66,0.22-13.93,0.22-13.93c0.18,0.04,2.89,1.08,2.89,1.08L61.32,86.53z"/>
				<path class="st26" d="M62.42,74.43c0.04-1.68,0.1-3.51,0.08-3.95c-0.07-1.5-0.07-5.73-2.35-4.37c-0.92,0.55-1.13,4.65-1.32,7.41
					C59.87,74.24,61.49,74.43,62.42,74.43z"/>
			</g>
		</g>
		<path class="st23" d="M71.54,55.34c0.22-0.41,0.15-0.94-0.1-1.34c-0.25-0.4-0.66-0.68-1.08-0.88c-1.05-0.51-4-1.07-4.08,0.76
			c-0.04,0.91,0.75,2.43,1.84,2.24c0.47-0.08,0.74-0.52,1.26-0.37c0.26,0.07,0.95,0.73,0.99,0.03
			C70.8,55.95,71.32,55.75,71.54,55.34z"/>
		<path class="st23" d="M64.83,57.09c0.54,0.45,0.9,1.12,0.98,1.82c0.12,0,0.24,0.01,0.37,0.01c-0.02-0.48,0.02-0.92,0-1.4
			c0.68-0.78,1-1.86,0.78-2.87c-0.09-0.41-0.33-0.87-0.75-0.91c-0.42-0.04-0.75,0.37-0.92,0.76C64.91,55.3,64.72,56.21,64.83,57.09z
			"/>
	</g>
	<linearGradient id="SVGID_5_" gradientUnits="userSpaceOnUse" x1="103.6581" y1="29.1516" x2="99.8223" y2="144.8655">
		<stop  offset="0.0373" style="stop-color:#93FFFD;stop-opacity:0"/>
		<stop  offset="0.6222" style="stop-color:#A5FDFE;stop-opacity:0.6076"/>
		<stop  offset="1" style="stop-color:#B2FBFF"/>
	</linearGradient>
	<path style="opacity:0.5608;fill:url(#SVGID_5_);" d="M31.92,0c0.3,18.59,19.86,140.09,19.86,140.09l0.03-0.01
		c0.15,0.71,0.66,1.39,1.6,1.93l30.75,17.75c2.2,1.27,5.78,1.27,7.97,0l66.72-38.78c1.08-0.63,1.62-1.46,1.63-2.28l0,0
		c0,0,11.32-74.52,16.84-118.71H31.92z"/>
	<g>
		<g class="st0">
			<g>
				<path class="st46" d="M123.59,122.24c-0.43,0.25-0.78,0.05-0.78-0.45c0-0.5,0.34-1.1,0.78-1.35l3.81-2.2
					c0.43-0.25,0.78-0.05,0.78,0.45s-0.34,1.1-0.78,1.35L123.59,122.24 M104.39,129.55c-0.43,0.25-0.78,0.05-0.78-0.45
					c0-0.49,0.34-1.08,0.78-1.34l6.35-3.67c0.42-0.24,0.77-0.05,0.77,0.44c0,0.5-0.34,1.1-0.77,1.34L104.39,129.55 M104.38,125.78
					c-0.43,0.25-0.78,0.05-0.78-0.45c0-0.5,0.34-1.1,0.78-1.35l15.28-8.82c0.42-0.24,0.77-0.05,0.77,0.45c0,0.5-0.34,1.1-0.77,1.34
					L104.38,125.78 M122.68,115.22c-0.43,0.25-0.78,0.05-0.78-0.45c0-0.5,0.34-1.1,0.78-1.35l4.7-2.71
					c0.43-0.25,0.78-0.05,0.78,0.45c0,0.5-0.34,1.1-0.78,1.35L122.68,115.22 M131.29,117.79l-0.04-13.06l9.2-5.31l0.04,13.06
					L131.29,117.79 M104.37,122.01c-0.43,0.25-0.78,0.05-0.78-0.43c0-0.5,0.34-1.1,0.78-1.35l4.7-2.71
					c0.43-0.25,0.78-0.05,0.78,0.45c0,0.49-0.34,1.09-0.78,1.34L104.37,122.01 M112.09,117.55c-0.43,0.25-0.78,0.05-0.78-0.43
					c0-0.5,0.34-1.1,0.78-1.35l15.28-8.82c0.43-0.25,0.78-0.05,0.78,0.45c0,0.49-0.34,1.08-0.78,1.34L112.09,117.55 M104.35,114.48
					c-0.43,0.25-0.78,0.05-0.78-0.43c0-0.5,0.34-1.1,0.78-1.35l7.29-4.21c0.43-0.25,0.78-0.05,0.78,0.45c0,0.49-0.34,1.08-0.78,1.34
					L104.35,114.48 M104.33,110.72c-0.43,0.25-0.78,0.05-0.78-0.45c0-0.49,0.34-1.08,0.78-1.34l28.48-16.44
					c0.43-0.25,0.78-0.05,0.78,0.43c0,0.5-0.34,1.1-0.78,1.35L104.33,110.72 M135.83,92.53c-0.42,0.24-0.78,0.05-0.78-0.45
					c0-0.49,0.35-1.09,0.78-1.34l3.81-2.2c0.43-0.25,0.78-0.05,0.78,0.43c0,0.5-0.34,1.1-0.78,1.35L135.83,92.53 M104.32,106.96
					c-0.43,0.25-0.78,0.04-0.78-0.45c0-0.5,0.34-1.1,0.78-1.35l22.32-12.88c0.43-0.25,0.78-0.05,0.78,0.45
					c0,0.49-0.34,1.1-0.78,1.35L104.32,106.96 M130.04,92.11c-0.42,0.24-0.77,0.04-0.77-0.45c0-0.5,0.34-1.1,0.77-1.34l9.6-5.54
					c0.43-0.25,0.78-0.05,0.78,0.45c0,0.49-0.34,1.1-0.78,1.35L130.04,92.11 M104.31,103.18c-0.43,0.25-0.78,0.05-0.78-0.45
					c0-0.49,0.34-1.09,0.78-1.34l35.31-20.39c0.43-0.25,0.78-0.05,0.78,0.43c0,0.5-0.34,1.1-0.78,1.35L104.31,103.18 M103.83,97.71
					l-0.06-19.38l36.55-21.1l0.05,19.38L103.83,97.71 M144.67,47.56L99.41,73.69c-1.22,0.71-2.21,2.42-2.21,3.82l0.18,63.39
					c0,1.4,1,1.97,2.22,1.27l45.26-26.13c1.22-0.71,2.21-2.42,2.21-3.82l-0.18-63.39C146.88,47.43,145.89,46.86,144.67,47.56"/>
				<polyline class="st12" points="140.33,57.22 103.78,78.33 103.83,97.71 140.39,76.6 140.33,57.22 				"/>
				<path class="st12" d="M139.62,81.02l-35.31,20.39c-0.43,0.25-0.78,0.85-0.78,1.34c0,0.5,0.35,0.7,0.78,0.45l35.31-20.39
					c0.43-0.25,0.78-0.85,0.78-1.35C140.4,80.96,140.05,80.77,139.62,81.02"/>
				<path class="st12" d="M126.63,92.28l-22.32,12.88c-0.43,0.25-0.78,0.85-0.78,1.35c0,0.49,0.35,0.7,0.78,0.45l22.32-12.88
					c0.43-0.25,0.78-0.86,0.78-1.35C127.42,92.23,127.07,92.03,126.63,92.28"/>
				<path class="st12" d="M139.63,84.78l-9.6,5.54c-0.42,0.24-0.77,0.84-0.77,1.34c0,0.49,0.35,0.7,0.77,0.45l9.6-5.54
					c0.43-0.25,0.78-0.86,0.78-1.35C140.41,84.72,140.06,84.53,139.63,84.78"/>
				<path class="st12" d="M132.81,92.5l-28.48,16.44c-0.43,0.25-0.78,0.85-0.78,1.34c0,0.5,0.35,0.7,0.78,0.45l28.48-16.44
					c0.43-0.25,0.78-0.85,0.78-1.35C133.59,92.44,133.24,92.24,132.81,92.5"/>
				<path class="st12" d="M139.64,88.55l-3.81,2.2c-0.42,0.24-0.78,0.85-0.78,1.34c0,0.5,0.36,0.69,0.78,0.45l3.81-2.2
					c0.43-0.25,0.78-0.85,0.78-1.35C140.42,88.5,140.08,88.3,139.64,88.55"/>
				<path class="st12" d="M111.63,108.49l-7.29,4.21c-0.43,0.25-0.78,0.85-0.78,1.35c0,0.49,0.35,0.68,0.78,0.43l7.29-4.21
					c0.43-0.25,0.78-0.85,0.78-1.34C112.41,108.44,112.06,108.24,111.63,108.49"/>
				<path class="st12" d="M127.37,110.71l-4.7,2.71c-0.43,0.25-0.78,0.85-0.78,1.35c0,0.5,0.35,0.7,0.78,0.45l4.7-2.71
					c0.43-0.25,0.78-0.85,0.78-1.35C128.15,110.66,127.8,110.46,127.37,110.71"/>
				<path class="st12" d="M119.65,115.17l-15.28,8.82c-0.43,0.25-0.78,0.85-0.78,1.35c0,0.5,0.35,0.7,0.78,0.45l15.28-8.82
					c0.42-0.24,0.77-0.84,0.77-1.34C120.42,115.13,120.07,114.93,119.65,115.17"/>
				<path class="st12" d="M127.39,118.25l-3.81,2.2c-0.43,0.25-0.78,0.85-0.78,1.35c0,0.5,0.35,0.7,0.78,0.45l3.81-2.2
					c0.43-0.25,0.78-0.85,0.78-1.35S127.83,118,127.39,118.25"/>
				<path class="st12" d="M110.74,124.1l-6.35,3.67c-0.43,0.25-0.78,0.85-0.78,1.34c0,0.5,0.35,0.7,0.78,0.45l6.35-3.67
					c0.42-0.24,0.77-0.84,0.77-1.34C111.51,124.05,111.16,123.85,110.74,124.1"/>
				<path class="st12" d="M109.06,117.52l-4.7,2.71c-0.43,0.25-0.78,0.85-0.78,1.35c0,0.49,0.35,0.68,0.78,0.43l4.7-2.71
					c0.43-0.25,0.78-0.85,0.78-1.34C109.84,117.47,109.49,117.27,109.06,117.52"/>
				<path class="st12" d="M127.36,106.95l-15.28,8.82c-0.43,0.25-0.78,0.85-0.78,1.35c0,0.49,0.35,0.68,0.78,0.43l15.28-8.82
					c0.43-0.25,0.78-0.85,0.78-1.34C128.14,106.9,127.79,106.7,127.36,106.95"/>
				<polyline class="st12" points="140.45,99.42 131.25,104.73 131.29,117.79 140.49,112.48 140.45,99.42 				"/>
			</g>
		</g>
	</g>
</g>
</svg>
