<?xml version="1.0" encoding="utf-8"?>
<!-- Generator: Adobe Illustrator 23.0.1, SVG Export Plug-In . SVG Version: 6.00 Build 0)  -->
<svg version="1.1" id="Layer_1" xmlns="http://www.w3.org/2000/svg" xmlns:xlink="http://www.w3.org/1999/xlink" x="0px" y="0px"
	 viewBox="0 0 360.71 852.82" style="enable-background:new 0 0 360.71 852.82;" xml:space="preserve">
<style type="text/css">
	.st0{enable-background:new    ;}
	.st1{fill:url(#SVGID_1_);}
	.st2{fill:url(#SVGID_2_);}
	.st3{fill:url(#SVGID_3_);}
	.st4{fill:url(#SVGID_4_);}
	.st5{opacity:0.5608;fill:url(#SVGID_5_);enable-background:new    ;}
	.st6{fill:url(#SVGID_6_);}
	.st7{fill:url(#SVGID_7_);}
	.st8{fill:url(#SVGID_8_);}
	.st9{fill:#FF65EB;}
	.st10{fill:#FF20CE;}
	.st11{opacity:0.5608;fill:url(#SVGID_9_);enable-background:new    ;}
	.st12{fill:#A5FFFF;}
	.st13{opacity:0.5608;fill:url(#SVGID_10_);enable-background:new    ;}
	.st14{opacity:0.5608;fill:url(#SVGID_11_);enable-background:new    ;}
	.st15{opacity:0.5608;fill:url(#SVGID_12_);enable-background:new    ;}
	.st16{fill:url(#SVGID_13_);}
	.st17{fill:#193164;}
	.st18{fill:#1A6CBE;}
	.st19{fill:#102465;}
	.st20{fill:#00154F;}
	.st21{fill:url(#SVGID_14_);}
	.st22{fill:#1A9BDB;}
	.st23{fill:#103450;}
	.st24{fill:#FFC6A0;}
	.st25{fill:#FDF7FB;}
	.st26{fill:#FFFFFF;}
	.st27{fill:#00EDF9;}
	.st28{opacity:0.6;fill:#00EDF9;enable-background:new    ;}
	.st29{fill:url(#SVGID_15_);}
	.st30{fill:url(#SVGID_16_);}
	.st31{fill:url(#SVGID_17_);}
	.st32{fill:url(#SVGID_18_);}
	.st33{fill:url(#SVGID_19_);}
	.st34{fill:url(#SVGID_20_);}
	.st35{opacity:0.5608;fill:#A5FFFF;enable-background:new    ;}
	.st36{fill:#B4FFFF;}
	.st37{opacity:0.8078;fill:#B8FFFF;enable-background:new    ;}
	.st38{fill:url(#SVGID_21_);}
	.st39{fill:url(#SVGID_22_);}
	.st40{fill:url(#SVGID_23_);}
	.st41{fill:#162A56;}
	.st42{fill:url(#SVGID_24_);}
	.st43{fill:#165DA4;}
	.st44{opacity:0.3;}
	.st45{opacity:0.5608;fill:url(#SVGID_25_);}
	.st46{opacity:0.6;fill:#00EDF9;}
	.st47{opacity:0.5608;fill:url(#SVGID_26_);}
	.st48{fill:url(#SVGID_27_);}
	.st49{fill:url(#SVGID_28_);}
	.st50{fill:url(#SVGID_29_);}
	.st51{opacity:0.4;fill:#1A9BDB;}
	.st52{fill:#011C63;}
	.st53{fill:#FCFEFB;}
	.st54{opacity:0.6;}
	.st55{fill:url(#SVGID_30_);}
	.st56{fill:url(#SVGID_31_);}
	.st57{fill:url(#SVGID_32_);}
	.st58{opacity:0.5608;fill:url(#SVGID_33_);}
	.st59{fill:url(#SVGID_34_);}
	.st60{fill:url(#SVGID_35_);}
	.st61{fill:url(#SVGID_36_);}
</style>
<g id="OBJECTS">
	<g>
		<g>
			
				<linearGradient id="SVGID_1_" gradientUnits="userSpaceOnUse" x1="181.4557" y1="593.971" x2="178.9252" y2="231.2379" gradientTransform="matrix(1 0 0 -1 0 634)">
				<stop  offset="0.0373" style="stop-color:#93FFFD;stop-opacity:0"/>
				<stop  offset="0.6222" style="stop-color:#A5FDFE;stop-opacity:0.6076"/>
				<stop  offset="1" style="stop-color:#B2FBFF"/>
			</linearGradient>
			<polygon style="opacity:0.5608;fill:url(#SVGID_1_);enable-background:new    ;" points="0,0 0,395.63 180.75,500.1 
				360.71,395.63 360.71,0 			"/>
			<g>
				<g class="st0">
					<g>
						
							<linearGradient id="SVGID_2_" gradientUnits="userSpaceOnUse" x1="209.0665" y1="492.3991" x2="151.7326" y2="330.2828" gradientTransform="matrix(1 0 0 -1 0 634)">
							<stop  offset="0" style="stop-color:#89DAF4"/>
							<stop  offset="1" style="stop-color:#008DD7"/>
						</linearGradient>
						<polygon class="st2" points="360.71,222.78 180.75,327.25 0,222.79 180.75,118.32 						"/>
					</g>
					
						<linearGradient id="SVGID_3_" gradientUnits="userSpaceOnUse" x1="180.75" y1="96.1979" x2="360.71" y2="96.1979" gradientTransform="matrix(1 0 0 -1 0 634)">
						<stop  offset="0" style="stop-color:#144188"/>
						<stop  offset="0.9975" style="stop-color:#1A7CDE"/>
					</linearGradient>
					<polygon class="st3" points="360.71,222.78 360.71,748.35 180.75,852.82 180.75,327.25 					"/>
					
						<linearGradient id="SVGID_4_" gradientUnits="userSpaceOnUse" x1="0" y1="96.1929" x2="180.75" y2="96.1929" gradientTransform="matrix(1 0 0 -1 0 634)">
						<stop  offset="0" style="stop-color:#144188"/>
						<stop  offset="0.998" style="stop-color:#102465"/>
					</linearGradient>
					<polygon class="st4" points="180.75,327.25 180.75,852.82 0,748.35 0,222.79 					"/>
				</g>
			</g>
			<polygon class="st9" points="180.75,347.03 360.71,242.56 360.71,240.77 180.75,345.24 			"/>
			<polygon class="st10" points="0,242.56 180.75,347.03 180.75,345.24 0,240.77 			"/>
		</g>
		<g>
			
				<linearGradient id="SVGID_5_" gradientUnits="userSpaceOnUse" x1="180.5288" y1="543.6838" x2="180.1375" y2="501.8226" gradientTransform="matrix(1 0 0 -1 0 634)">
				<stop  offset="0.0373" style="stop-color:#93FFFD;stop-opacity:0"/>
				<stop  offset="0.6222" style="stop-color:#A5FDFE;stop-opacity:0.6076"/>
				<stop  offset="1" style="stop-color:#B2FBFF"/>
			</linearGradient>
			<polygon class="st5" points="166.31,83.23 173.45,134.05 181.06,138.44 188.61,134.05 194.88,83.23 			"/>
			<polygon class="st12" points="173.45,134.05 181.01,129.66 188.61,134.05 181.06,138.44 			"/>
			
				<linearGradient id="SVGID_6_" gradientUnits="userSpaceOnUse" x1="25.6088" y1="454.3979" x2="25.2176" y2="412.5366" gradientTransform="matrix(1 0 0 -1 0 634)">
				<stop  offset="0.0373" style="stop-color:#93FFFD;stop-opacity:0"/>
				<stop  offset="0.6222" style="stop-color:#A5FDFE;stop-opacity:0.6076"/>
				<stop  offset="1" style="stop-color:#B2FBFF"/>
			</linearGradient>
			<polygon style="opacity:0.5608;fill:url(#SVGID_6_);enable-background:new    ;" points="11.39,172.52 18.53,223.33 
				26.14,227.73 33.69,223.33 39.96,172.52 			"/>
			<polygon class="st12" points="18.53,223.33 26.09,218.94 33.69,223.33 26.14,227.73 			"/>
			
				<linearGradient id="SVGID_7_" gradientUnits="userSpaceOnUse" x1="338.1088" y1="454.3979" x2="337.7175" y2="412.5366" gradientTransform="matrix(1 0 0 -1 0 634)">
				<stop  offset="0.0373" style="stop-color:#93FFFD;stop-opacity:0"/>
				<stop  offset="0.6222" style="stop-color:#A5FDFE;stop-opacity:0.6076"/>
				<stop  offset="1" style="stop-color:#B2FBFF"/>
			</linearGradient>
			<polygon style="opacity:0.5608;fill:url(#SVGID_7_);enable-background:new    ;" points="323.89,172.52 331.03,223.33 
				338.64,227.73 346.19,223.33 352.46,172.52 			"/>
			<polygon class="st12" points="331.03,223.33 338.59,218.94 346.19,223.33 338.64,227.73 			"/>
			
				<linearGradient id="SVGID_8_" gradientUnits="userSpaceOnUse" x1="180.5288" y1="366.8976" x2="180.1375" y2="325.0363" gradientTransform="matrix(1 0 0 -1 0 634)">
				<stop  offset="0.0373" style="stop-color:#93FFFD;stop-opacity:0"/>
				<stop  offset="0.6222" style="stop-color:#A5FDFE;stop-opacity:0.6076"/>
				<stop  offset="1" style="stop-color:#B2FBFF"/>
			</linearGradient>
			<polygon style="opacity:0.5608;fill:url(#SVGID_8_);enable-background:new    ;" points="166.31,260.02 173.45,310.83 
				181.06,315.23 188.61,310.83 194.88,260.02 			"/>
			<polygon class="st12" points="173.45,310.83 181.01,306.44 188.61,310.83 181.06,315.23 			"/>
		</g>
		<g>
			<g>
				
					<linearGradient id="SVGID_9_" gradientUnits="userSpaceOnUse" x1="193.5509" y1="480.1512" x2="169.8267" y2="337.1466" gradientTransform="matrix(1 0 0 -1 0 634)">
					<stop  offset="0" style="stop-color:#CDEFFB"/>
					<stop  offset="1" style="stop-color:#89DAF4"/>
				</linearGradient>
				<path style="fill:url(#SVGID_9_);" d="M206.57,156.54c1.33-0.77,3.46-0.77,4.78,0l74.5,43.29c1.32,0.77,1.32,2.01,0,2.77
					l-125.91,72.7c-1.33,0.77-3.47,0.76-4.79-0.01L80.65,232c-1.32-0.77-1.31-2,0.02-2.77L206.57,156.54z"/>
				<path class="st17" d="M209.73,170.56c-0.31,0.18-0.83,0.18-1.14,0l-5.2-3.02c-0.31-0.18-0.31-0.48,0-0.66l5.24-3.02
					c0.31-0.18,0.83-0.18,1.14,0l5.2,3.02c0.31,0.18,0.31,0.48,0,0.66L209.73,170.56z M207.44,171.88c0.31-0.18,0.31-0.48,0-0.66
					l-5.2-3.02c-0.31-0.18-0.83-0.18-1.14,0l-5.24,3.02c-0.31,0.18-0.31,0.48,0,0.66l5.2,3.02c0.31,0.18,0.83,0.18,1.14,0
					L207.44,171.88z M199.91,176.23c0.32-0.19,0.31-0.48,0-0.66l-5.2-3.02c-0.31-0.18-0.82-0.19-1.14,0l-5.22,3.02
					c-0.32,0.19-0.32,0.48,0,0.66l5.2,3.02c0.31,0.18,0.82,0.19,1.14,0L199.91,176.23z M229.92,176.23c0.31-0.18,0.31-0.48,0-0.66
					l-5.2-3.02c-0.31-0.18-0.83-0.18-1.14,0l-5.24,3.02c-0.31,0.18-0.31,0.48,0,0.66l5.2,3.02c0.31,0.18,0.83,0.18,1.14,0
					L229.92,176.23z M204.95,181.99l5.22-3.02c0.32-0.19,0.32-0.48,0-0.66l-5.2-3.02c-0.31-0.18-0.82-0.19-1.14,0l-5.22,3.02
					c-0.32,0.19-0.33,0.49-0.01,0.67l5.2,3.02C204.1,182.17,204.62,182.17,204.95,181.99z M217.2,176.89
					c-0.31-0.18-0.83-0.18-1.14,0l-5.24,3.02c-0.31,0.18-0.31,0.48,0,0.66l5.2,3.02c0.31,0.18,0.83,0.18,1.14,0l5.24-3.02
					c0.31-0.18,0.31-0.48,0-0.66L217.2,176.89z M184.86,184.92c0.31-0.18,0.31-0.48,0-0.66l-5.2-3.02c-0.31-0.18-0.83-0.18-1.14,0
					l-5.24,3.02c-0.31,0.18-0.31,0.48,0,0.66l5.2,3.02c0.31,0.18,0.83,0.18,1.14,0L184.86,184.92z M189.89,190.68l5.24-3.02
					c0.31-0.18,0.31-0.48,0-0.66l-5.2-3.02c-0.31-0.18-0.83-0.18-1.14,0l-5.24,3.02c-0.31,0.18-0.31,0.48,0,0.66l5.2,3.02
					C189.06,190.86,189.57,190.86,189.89,190.68z M177.34,189.27c0.31-0.18,0.31-0.48,0-0.66l-5.2-3.02c-0.31-0.18-0.83-0.18-1.14,0
					l-5.24,3.02c-0.31,0.18-0.31,0.48,0,0.66l5.2,3.02c0.31,0.18,0.83,0.18,1.14,0L177.34,189.27z M200.96,192.29
					c0.31,0.18,0.83,0.18,1.14,0l5.24-3.02c0.31-0.18,0.31-0.48,0-0.66l-5.2-3.02c-0.31-0.18-0.83-0.18-1.14,0l-5.24,3.02
					c-0.31,0.18-0.31,0.48,0,0.66L200.96,192.29z M176.02,191.34c-0.31,0.18-0.31,0.48,0,0.66l5.2,3.02c0.31,0.18,0.83,0.18,1.14,0
					l5.24-3.02c0.31-0.18,0.31-0.48,0-0.66l-5.2-3.02c-0.31-0.18-0.83-0.18-1.14,0L176.02,191.34z M169.81,193.61
					c0.31-0.18,0.31-0.48,0-0.66l-5.2-3.02c-0.31-0.18-0.83-0.18-1.14,0l-5.24,3.02c-0.31,0.18-0.31,0.48,0,0.66l5.2,3.02
					c0.31,0.18,0.83,0.18,1.14,0L169.81,193.61z M193.44,196.63c0.31,0.18,0.83,0.18,1.14,0l5.24-3.02c0.31-0.18,0.31-0.48,0-0.66
					l-5.2-3.02c-0.31-0.18-0.83-0.18-1.14,0l-5.24,3.02c-0.31,0.18-0.31,0.48,0,0.66L193.44,196.63z M234.7,196.29
					c-0.32,0.19-0.31,0.48,0,0.66l1.56,0.9c0.31,0.18,0.82,0.19,1.14,0l6.25-3.61c0.31-0.18,0.31-0.48,0-0.66l-1.56-0.9
					c-0.31-0.18-0.83-0.18-1.14,0L234.7,196.29z M168.5,195.68c-0.32,0.19-0.31,0.48,0,0.66l5.2,3.02c0.31,0.18,0.82,0.19,1.14,0
					l5.23-3.02c0.32-0.19,0.31-0.48,0-0.66l-5.2-3.02c-0.31-0.18-0.82-0.19-1.14,0L168.5,195.68z M187.09,194.27
					c-0.31-0.18-0.83-0.18-1.14,0l-5.24,3.02c-0.31,0.18-0.31,0.48,0,0.66l5.2,3.02c0.31,0.18,0.83,0.18,1.14,0l5.24-3.02
					c0.31-0.18,0.31-0.48,0-0.66L187.09,194.27z M160.97,200.03c-0.32,0.19-0.31,0.48,0,0.66l5.2,3.02c0.31,0.18,0.82,0.19,1.14,0
					l5.23-3.02c0.32-0.19,0.31-0.48,0-0.66l-5.2-3.02c-0.31-0.18-0.82-0.19-1.14,0L160.97,200.03z M201.31,201.41
					c0.31-0.18,0.33-0.47,0-0.66l-5.19-3.02c-0.32-0.19-0.83-0.18-1.14,0l-5.24,3.02c-0.31,0.18-0.33,0.47,0,0.66l5.19,3.02
					c0.32,0.19,0.83,0.18,1.14,0L201.31,201.41z M154.75,202.3c0.31-0.18,0.31-0.48,0-0.66l-5.2-3.02c-0.31-0.18-0.83-0.18-1.14,0
					l-5.23,3.02c-0.32,0.19-0.33,0.49-0.01,0.67l5.2,3.02c0.31,0.18,0.83,0.18,1.15-0.01L154.75,202.3z M153.44,204.38
					c-0.31,0.18-0.31,0.48,0,0.66l5.2,3.02c0.31,0.18,0.83,0.18,1.14,0l5.24-3.02c0.31-0.18,0.31-0.48,0-0.66l-5.2-3.02
					c-0.31-0.18-0.83-0.18-1.14,0L153.44,204.38z M187.41,208.77c0.32,0.19,0.83,0.18,1.14,0l5.24-3.02c0.31-0.18,0.33-0.47,0-0.66
					l-5.19-3.02c-0.32-0.19-0.83-0.18-1.14,0l-5.24,3.02c-0.31,0.18-0.33,0.47,0,0.66L187.41,208.77z M147.23,206.65
					c0.31-0.18,0.31-0.48,0-0.66l-5.2-3.02c-0.31-0.18-0.83-0.18-1.14,0l-5.24,3.02c-0.31,0.18-0.31,0.48,0,0.66l5.2,3.02
					c0.31,0.18,0.83,0.18,1.14,0L147.23,206.65z M172.04,202.96c-0.31-0.18-0.83-0.18-1.15,0.01l-5.23,3.02
					c-0.32,0.19-0.31,0.48,0,0.66l5.2,3.02c0.31,0.18,0.82,0.19,1.14,0l5.23-3.02c0.32-0.19,0.33-0.49,0.01-0.67L172.04,202.96z
					 M145.91,208.72c-0.31,0.18-0.31,0.48,0,0.66l5.2,3.02c0.31,0.18,0.83,0.18,1.14,0l5.24-3.02c0.31-0.18,0.31-0.48,0-0.66
					l-5.2-3.02c-0.31-0.18-0.83-0.18-1.14,0L145.91,208.72z M205.85,208.77c-0.32,0.19-0.31,0.48,0,0.66l5.2,3.02
					c0.31,0.18,0.82,0.19,1.14,0l6.76-3.9c0.31-0.18,0.31-0.48,0-0.66l-5.2-3.02c-0.31-0.18-0.83-0.18-1.14,0L205.85,208.77z
					 M164.5,207.31c-0.31-0.18-0.83-0.18-1.14,0l-5.23,3.02c-0.32,0.19-0.33,0.49-0.01,0.67l5.2,3.02c0.31,0.18,0.83,0.18,1.15-0.01
					l5.23-3.02c0.31-0.18,0.31-0.48,0-0.66L164.5,207.31z M197.57,212.24c0.31-0.18,0.31-0.48-0.01-0.67l-5.19-3.02
					c-0.32-0.19-0.83-0.18-1.14,0l-5.24,3.02c-0.31,0.18-0.33,0.47,0,0.66l5.19,3.02c0.32,0.19,0.84,0.19,1.15,0.01L197.57,212.24z
					 M138.39,213.07c-0.31,0.18-0.31,0.48,0,0.66l5.2,3.02c0.31,0.18,0.83,0.18,1.14,0l5.24-3.02c0.31-0.18,0.31-0.48,0-0.66
					l-5.2-3.02c-0.31-0.18-0.83-0.18-1.14,0L138.39,213.07z M132.18,215.34c0.31-0.18,0.31-0.48,0-0.66l-5.2-3.02
					c-0.31-0.18-0.83-0.18-1.14,0l-5.24,3.02c-0.31,0.18-0.31,0.48,0,0.66l5.2,3.02c0.31,0.18,0.83,0.18,1.14,0L132.18,215.34z
					 M156.98,211.65c-0.31-0.18-0.83-0.18-1.14,0l-5.24,3.02c-0.31,0.18-0.31,0.48,0,0.66l5.2,3.02c0.31,0.18,0.83,0.18,1.14,0
					l5.24-3.02c0.31-0.18,0.31-0.48,0-0.66L156.98,211.65z M137.2,221.1l5.22-3.02c0.32-0.19,0.33-0.49,0.01-0.67l-5.2-3.02
					c-0.31-0.18-0.83-0.18-1.15,0.01l-5.23,3.02c-0.31,0.18-0.31,0.48,0,0.66l5.2,3.02C136.37,221.28,136.89,221.28,137.2,221.1z
					 M124.64,219.69c0.32-0.19,0.33-0.49,0.01-0.67l-5.2-3.02c-0.31-0.18-0.83-0.18-1.15,0.01l-5.23,3.02
					c-0.32,0.19-0.31,0.48,0,0.66l5.2,3.02c0.31,0.18,0.82,0.19,1.14,0L124.64,219.69z M149.46,216c-0.31-0.18-0.83-0.18-1.14,0
					l-5.24,3.02c-0.31,0.18-0.31,0.48,0,0.66l5.2,3.02c0.31,0.18,0.83,0.18,1.14,0l5.24-3.02c0.31-0.18,0.31-0.48,0-0.66L149.46,216
					z M182.52,220.93c0.31-0.18,0.31-0.48-0.01-0.67l-5.19-3.02c-0.32-0.19-0.83-0.18-1.14,0l-5.24,3.02
					c-0.31,0.18-0.33,0.47,0,0.66l5.19,3.02c0.32,0.19,0.84,0.19,1.15,0.01L182.52,220.93z M123.34,221.76
					c-0.32,0.19-0.31,0.48,0,0.66l5.2,3.02c0.31,0.18,0.82,0.19,1.14,0l5.23-3.02c0.32-0.19,0.31-0.48,0-0.66l-5.2-3.02
					c-0.31-0.18-0.82-0.19-1.14,0L123.34,221.76z M140.75,227.05c0.31,0.18,0.83,0.18,1.14,0l5.24-3.02c0.31-0.18,0.31-0.48,0-0.66
					l-5.2-3.02c-0.31-0.18-0.83-0.18-1.14,0l-5.24,3.02c-0.31,0.18-0.31,0.48,0,0.66L140.75,227.05z M134.41,224.69
					c-0.31-0.18-0.83-0.18-1.15,0.01l-5.23,3.02c-0.32,0.19-0.31,0.48,0,0.66l5.2,3.02c0.31,0.18,0.82,0.19,1.14,0l5.23-3.02
					c0.32-0.19,0.33-0.49,0.01-0.67L134.41,224.69z M167.46,229.62c0.32-0.19,0.31-0.48-0.01-0.67l-5.19-3.02
					c-0.32-0.19-0.82-0.19-1.14,0l-5.23,3.02c-0.32,0.19-0.34,0.48-0.01,0.67l5.19,3.02c0.32,0.19,0.84,0.19,1.16,0L167.46,229.62z
					 M93.28,230.45c-0.31,0.18-0.31,0.48,0,0.66l5.2,3.02c0.31,0.18,0.83,0.18,1.14,0l9.98-5.76c0.31-0.18,0.31-0.48,0-0.66
					l-5.2-3.02c-0.31-0.18-0.83-0.18-1.14,0L93.28,230.45z M125.69,235.74c0.31,0.18,0.83,0.18,1.15-0.01l5.22-3.02
					c0.31-0.18,0.31-0.48,0-0.66l-5.2-3.02c-0.31-0.18-0.83-0.18-1.14,0l-5.22,3.02c-0.32,0.19-0.33,0.49-0.01,0.67L125.69,235.74z
					 M162.31,233.91c-0.32,0.19-0.33,0.49-0.01,0.67l5.2,3.02c0.31,0.18,0.83,0.18,1.15-0.01l41.24-23.81
					c0.31-0.18,0.31-0.48,0-0.66l-5.2-3.02c-0.31-0.18-0.83-0.18-1.14,0L162.31,233.91z M100.76,234.8c-0.31,0.18-0.31,0.48,0,0.66
					l5.2,3.02c0.31,0.18,0.83,0.18,1.14,0l5.24-3.02c0.31-0.18,0.31-0.48,0-0.66l-5.2-3.02c-0.31-0.18-0.83-0.18-1.14,0
					L100.76,234.8z M134.72,239.19c0.32,0.19,0.83,0.18,1.14,0l5.22-3.02c0.32-0.19,0.34-0.48,0.01-0.67l-5.19-3.02
					c-0.32-0.19-0.83-0.18-1.15,0.01l-5.22,3.02c-0.31,0.18-0.33,0.47,0,0.66L134.72,239.19z M152.41,238.31
					c0.31-0.18,0.31-0.48-0.01-0.67l-5.19-3.02c-0.32-0.19-0.83-0.18-1.14,0l-5.24,3.02c-0.31,0.18-0.33,0.47,0,0.66l5.19,3.02
					c0.32,0.19,0.84,0.19,1.15,0.01L152.41,238.31z M108.23,239.14c-0.31,0.18-0.31,0.48,0,0.66l5.2,3.02
					c0.31,0.18,0.83,0.18,1.14,0l9.97-5.76c0.31-0.18,0.31-0.48,0-0.66l-5.2-3.02c-0.31-0.18-0.83-0.18-1.14,0L108.23,239.14z
					 M153.25,239.14c-0.32,0.19-0.31,0.48,0,0.66l5.2,3.02c0.31,0.18,0.82,0.19,1.14,0l6.76-3.9c0.31-0.18,0.31-0.48,0-0.66
					l-5.2-3.02c-0.31-0.18-0.83-0.18-1.14,0L153.25,239.14z M123.19,247.84c-0.31,0.18-0.33,0.47,0,0.66l5.19,3.02
					c0.32,0.19,0.84,0.19,1.15,0.01l15.35-8.86c0.31-0.18,0.31-0.48-0.01-0.67l-5.19-3.02c-0.32-0.19-0.83-0.18-1.14,0
					L123.19,247.84z M138.19,247.84c-0.31,0.18-0.31,0.48,0,0.66l5.2,3.02c0.31,0.18,0.83,0.18,1.14,0l5.24-3.02
					c0.31-0.18,0.31-0.48,0-0.66l-5.2-3.02c-0.31-0.18-0.83-0.18-1.14,0L138.19,247.84z M222.44,171.88c0.31-0.18,0.31-0.48,0-0.66
					l-5.2-3.02c-0.31-0.18-0.83-0.18-1.14,0l-9.98,5.76c-0.32,0.19-0.31,0.48,0,0.66l5.2,3.02c0.31,0.18,0.82,0.19,1.14,0
					L222.44,171.88z M192.38,180.58c0.31-0.18,0.31-0.48,0-0.66l-5.2-3.02c-0.31-0.18-0.83-0.18-1.14,0l-5.24,3.02
					c-0.31,0.18-0.31,0.48,0,0.66l5.2,3.02c0.31,0.18,0.83,0.18,1.14,0L192.38,180.58z M197.41,186.34l5.24-3.02
					c0.31-0.18,0.31-0.48,0-0.66l-5.2-3.02c-0.31-0.18-0.83-0.18-1.14,0l-5.24,3.02c-0.31,0.18-0.31,0.48,0,0.66l5.2,3.02
					C196.58,186.52,197.1,186.52,197.41,186.34z M237.4,180.57c0.31-0.18,0.33-0.47,0-0.66l-5.19-3.02c-0.32-0.19-0.83-0.18-1.14,0
					l-11.22,6.48c-0.31,0.18-0.33,0.47,0,0.66l5.19,3.02c0.32,0.19,0.83,0.18,1.14,0L237.4,180.57z M208.49,187.94
					c0.31,0.18,0.82,0.19,1.14,0l5.23-3.02c0.32-0.19,0.31-0.48,0-0.66l-5.2-3.02c-0.31-0.18-0.82-0.19-1.14,0l-5.22,3.02
					c-0.32,0.19-0.32,0.48,0,0.66L208.49,187.94z M223.89,188.37c0.31-0.18,0.33-0.47,0-0.66l-5.19-3.02
					c-0.32-0.19-0.83-0.18-1.14,0l-5.24,3.02c-0.31,0.18-0.33,0.47,0,0.66l5.19,3.02c0.32,0.19,0.83,0.18,1.14,0L223.89,188.37z
					 M223.62,189.85c-0.31,0.18-0.33,0.47,0,0.66l5.17,3c0.31,0.18,0.83,0.18,1.14,0l14.92-8.61c0.31-0.18,0.31-0.48,0-0.66l-5.17-3
					c-0.32-0.19-0.83-0.18-1.14,0L223.62,189.85z M216.36,192.72c0.32-0.19,0.33-0.47,0-0.66l-5.19-3.02
					c-0.32-0.19-0.82-0.19-1.14,0l-5.23,3.02c-0.32,0.19-0.33,0.47,0,0.66l5.19,3.02c0.32,0.19,0.82,0.19,1.14,0L216.36,192.72z
					 M231.15,194.23c-0.32,0.19-0.31,0.48,0,0.66l1.54,0.9c0.32,0.19,0.83,0.19,1.15,0.01l6.25-3.61c0.31-0.18,0.31-0.48-0.01-0.67
					l-1.54-0.9c-0.31-0.18-0.83-0.18-1.14,0L231.15,194.23z M226.08,201.24c-0.32,0.19-0.31,0.48,0,0.66l1.54,0.9
					c0.32,0.19,0.83,0.19,1.15,0.01l6.25-3.61c0.31-0.18,0.31-0.48-0.01-0.67l-1.54-0.9c-0.31-0.18-0.83-0.18-1.14,0L226.08,201.24z
					 M243.33,191.31c-0.32,0.19-0.31,0.48,0,0.66l1.54,0.9c0.32,0.19,0.83,0.19,1.15,0.01l6.25-3.61c0.31-0.18,0.31-0.48-0.01-0.67
					l-1.54-0.9c-0.31-0.18-0.83-0.18-1.14,0L243.33,191.31z M227.64,194.84c0.31-0.18,0.31-0.48,0-0.66l-5.17-3
					c-0.32-0.19-0.83-0.18-1.14,0l-5.24,3.02c-0.31,0.18-0.33,0.47,0,0.66l5.17,3c0.31,0.18,0.83,0.18,1.14,0L227.64,194.84z
					 M208.83,197.06c0.31-0.18,0.33-0.47,0-0.66l-5.19-3.02c-0.32-0.19-0.83-0.18-1.14,0l-5.23,3.02c-0.32,0.19-0.34,0.48-0.01,0.67
					l5.19,3.02c0.32,0.19,0.83,0.18,1.15-0.01L208.83,197.06z M162.28,197.96c0.32-0.19,0.33-0.49,0.01-0.67l-5.2-3.02
					c-0.31-0.18-0.83-0.18-1.15,0.01l-5.23,3.02c-0.32,0.19-0.31,0.48,0,0.66l5.2,3.02c0.31,0.18,0.82,0.19,1.14,0L162.28,197.96z
					 M213.76,202.22c0.32,0.19,0.84,0.19,1.15,0.01l5.05-2.92l0.15-0.12c0.31-0.18,0.31-0.48,0-0.66l-5.17-3
					c-0.32-0.19-0.83-0.18-1.14,0l-5.24,3.02c-0.31,0.18-0.33,0.47,0,0.66L213.76,202.22z M179.56,198.61
					c-0.31-0.18-0.83-0.18-1.14,0l-5.24,3.02c-0.31,0.18-0.31,0.48,0,0.66l5.2,3.02c0.31,0.18,0.83,0.18,1.14,0l5.24-3.02
					c0.31-0.18,0.31-0.48,0-0.66L179.56,198.61z M206.24,206.56c0.32,0.19,0.83,0.19,1.15,0.01l5.23-3.02
					c0.32-0.19,0.33-0.49,0-0.67l-5.19-3.02c-0.32-0.19-0.83-0.18-1.15,0.01l-5.23,3.02c-0.32,0.19-0.33,0.47,0,0.66L206.24,206.56z
					 M214.91,203.54c-0.32,0.19-0.31,0.48,0,0.66l5.2,3.02c0.31,0.18,0.82,0.19,1.14,0l5.18-2.99c0.32-0.19,0.33-0.49,0.01-0.67
					l-5.2-3.02c-0.31-0.18-0.83-0.18-1.15,0.01L214.91,203.54z M205.09,207.9c0.32-0.19,0.31-0.48-0.01-0.67l-5.19-3.02
					c-0.32-0.19-0.82-0.19-1.14,0l-5.23,3.02c-0.32,0.19-0.34,0.48-0.01,0.67l5.19,3.02c0.32,0.19,0.84,0.19,1.16,0L205.09,207.9z
					 M179.88,213.12c0.32,0.19,0.83,0.18,1.14,0l5.24-3.02c0.31-0.18,0.33-0.47,0-0.66l-5.19-3.02c-0.32-0.19-0.83-0.18-1.14,0
					l-5.24,3.02c-0.31,0.18-0.33,0.47,0,0.66L179.88,213.12z M139.7,210.99c0.31-0.18,0.31-0.48,0-0.66l-5.2-3.02
					c-0.31-0.18-0.83-0.18-1.14,0l-5.24,3.02c-0.31,0.18-0.31,0.48,0,0.66l5.2,3.02c0.31,0.18,0.83,0.18,1.14,0L139.7,210.99z
					 M172.36,217.46c0.32,0.19,0.83,0.18,1.14,0l5.23-3.02c0.32-0.19,0.34-0.48,0.01-0.67l-5.19-3.02
					c-0.32-0.19-0.83-0.18-1.15,0.01l-5.23,3.02c-0.31,0.18-0.33,0.47,0,0.66L172.36,217.46z M190.04,216.58
					c0.31-0.18,0.31-0.48-0.01-0.67l-5.19-3.02c-0.32-0.19-0.83-0.18-1.14,0l-5.24,3.02c-0.31,0.18-0.33,0.47,0,0.66l5.19,3.02
					c0.32,0.19,0.84,0.19,1.15,0.01L190.04,216.58z M164.82,221.81c0.32,0.19,0.83,0.18,1.15-0.01l5.22-3.02
					c0.32-0.19,0.33-0.47,0-0.66L166,215.1c-0.32-0.19-0.82-0.19-1.14,0l-5.22,3.02c-0.32,0.19-0.34,0.48-0.01,0.67L164.82,221.81z
					 M157.3,226.16c0.32,0.19,0.83,0.18,1.14,0l5.24-3.02c0.31-0.18,0.33-0.47,0-0.66l-5.19-3.02c-0.32-0.19-0.83-0.18-1.14,0
					l-5.24,3.02c-0.31,0.18-0.33,0.47,0,0.66L157.3,226.16z M117.12,224.03c0.31-0.18,0.31-0.48,0-0.66l-5.2-3.02
					c-0.31-0.18-0.83-0.18-1.14,0l-5.22,3.02c-0.32,0.19-0.33,0.49-0.01,0.67l5.2,3.02c0.31,0.18,0.83,0.18,1.15-0.01L117.12,224.03
					z M174.98,225.28c0.32-0.19,0.33-0.49,0-0.67l-5.19-3.02c-0.32-0.19-0.83-0.18-1.15,0.01l-5.22,3.02
					c-0.32,0.19-0.33,0.47,0,0.66l5.19,3.02c0.32,0.19,0.83,0.19,1.15,0.01L174.98,225.28z M122.15,229.78l5.22-3.02
					c0.31-0.18,0.31-0.48,0-0.66l-5.2-3.02c-0.31-0.18-0.83-0.18-1.14,0l-5.22,3.02c-0.32,0.19-0.33,0.49-0.01,0.67l5.2,3.02
					C121.31,229.97,121.83,229.97,122.15,229.78z M149.77,230.5c0.32,0.19,0.83,0.18,1.14,0l5.24-3.02c0.31-0.18,0.33-0.47,0-0.66
					l-5.19-3.02c-0.32-0.19-0.83-0.18-1.14,0l-5.24,3.02c-0.31,0.18-0.33,0.47,0,0.66L149.77,230.5z M113.48,234.13
					c0.31,0.18,0.83,0.18,1.14,0l5.24-3.02c0.31-0.18,0.31-0.48,0-0.66l-5.2-3.02c-0.31-0.18-0.83-0.18-1.14,0l-5.24,3.02
					c-0.31,0.18-0.31,0.48,0,0.66L113.48,234.13z M148.62,231.82c0.31-0.18,0.33-0.47,0-0.66l-5.19-3.02
					c-0.32-0.19-0.83-0.18-1.14,0l-5.24,3.02c-0.31,0.18-0.33,0.47,0,0.66l5.19,3.02c0.32,0.19,0.83,0.18,1.14,0L148.62,231.82z
					 M153.55,236.98c0.32,0.19,0.84,0.19,1.15,0.01l5.24-3.02c0.31-0.18,0.31-0.48-0.01-0.67l-5.19-3.02
					c-0.32-0.19-0.83-0.18-1.14,0l-5.24,3.02c-0.31,0.18-0.33,0.47,0,0.66L153.55,236.98z M115.72,243.49
					c-0.31,0.18-0.33,0.47,0,0.66l5.19,3.02c0.32,0.19,0.83,0.18,1.14,0l11.52-6.65c0.32-0.19,0.33-0.47,0-0.66l-5.19-3.02
					c-0.32-0.19-0.82-0.19-1.14,0L115.72,243.49z M145.73,243.48c-0.32,0.19-0.33,0.49-0.01,0.67l5.2,3.02
					c0.31,0.18,0.83,0.18,1.15-0.01l5.23-3.02c0.31-0.18,0.31-0.48,0-0.66l-5.2-3.02c-0.31-0.18-0.83-0.18-1.14,0L145.73,243.48z
					 M167.03,241.85c-0.66,0.38-0.66,1-0.01,1.38l15.63,9.08c0.65,0.38,1.73,0.38,2.39,0l28.06-16.15c0.67-0.39,0.66-1,0.01-1.38
					l-15.63-9.08c-0.65-0.38-1.72-0.39-2.39,0L167.03,241.85z M130.67,252.18c-0.31,0.18-0.31,0.48,0,0.66l5.2,3.02
					c0.31,0.18,0.83,0.18,1.14,0l5.24-3.02c0.31-0.18,0.31-0.48,0-0.66l-5.2-3.02c-0.31-0.18-0.83-0.18-1.14,0L130.67,252.18z"/>
				<path class="st18" d="M206.5,67.09c1.99-1.15,3.6-0.23,3.61,2.06l0.25,87.55l-130.7,75.46l-0.25-87.55
					c-0.01-2.28,1.6-5.06,3.58-6.21L206.5,67.09z"/>
				<path class="st18" d="M286.84,201.22c0,0.5-0.33,1.01-1,1.39l-125.9,72.69c-1.33,0.77-3.47,0.76-4.79-0.01L80.65,232
					c-0.08-0.05-0.14-0.1-0.2-0.15c-0.08-0.06-0.17-0.12-0.24-0.18c-0.11-0.09-0.19-0.19-0.27-0.3c-0.01-0.02-0.02-0.04-0.04-0.05
					c-0.07-0.1-0.12-0.21-0.16-0.31c0-0.01-0.01-0.02-0.01-0.04c-0.04-0.11-0.06-0.23-0.06-0.35l0.02,5.51c0,0.01,0,0.02,0,0.03
					c0,0.06,0.01,0.13,0.02,0.19c0.01,0.04,0.02,0.08,0.04,0.13c0,0.01,0.01,0.02,0.01,0.04c0,0.01,0,0.02,0.01,0.03
					c0.02,0.06,0.05,0.13,0.09,0.19c0.02,0.03,0.04,0.06,0.06,0.09c0.01,0.02,0.02,0.04,0.04,0.05c0.01,0.02,0.02,0.04,0.04,0.05
					c0.06,0.08,0.13,0.15,0.21,0.23c0.01,0.01,0.02,0.01,0.02,0.02c0.07,0.06,0.16,0.12,0.24,0.18c0.06,0.04,0.1,0.08,0.16,0.12
					c0.01,0.01,0.03,0.02,0.04,0.02l74.5,43.29c1.32,0.77,3.46,0.77,4.79,0.01l125.91-72.69c0.67-0.38,1-0.89,0.99-1.39
					L286.84,201.22z"/>
			</g>
			<g>
				<g>
					<polygon class="st19" points="204.13,75.36 204.35,153.26 85.63,221.8 85.41,143.9 					"/>
				</g>
				<polygon class="st20" points="204.13,77.83 204.13,75.36 85.41,143.9 85.41,146.37 				"/>
				
					<linearGradient id="SVGID_10_" gradientUnits="userSpaceOnUse" x1="76.51" y1="485.4972" x2="209.06" y2="485.4972" gradientTransform="matrix(1 0 0 -1 0 634)">
					<stop  offset="0" style="stop-color:#CDEFFB"/>
					<stop  offset="1" style="stop-color:#89DAF4"/>
				</linearGradient>
				<path style="fill:url(#SVGID_10_);" d="M207.29,66.74c0.2-0.06,0.4-0.11,0.59-0.13c0.02,0,0.04,0,0.05-0.01
					c0.2-0.02,0.4-0.01,0.58,0.03c0.01,0,0.02,0,0.03,0.01c0.19,0.04,0.36,0.1,0.52,0.2l-2.9-1.73c-0.01,0-0.01-0.01-0.02-0.01
					c-0.06-0.03-0.12-0.06-0.18-0.09s-0.12-0.05-0.19-0.07c-0.04-0.01-0.09-0.02-0.13-0.03c-0.01,0-0.02,0-0.03-0.01
					c-0.01,0-0.03-0.01-0.04-0.01c-0.07-0.01-0.14-0.02-0.22-0.03c-0.08,0-0.16-0.01-0.24,0c-0.03,0-0.05,0.01-0.08,0.01
					c-0.02,0-0.04,0-0.05,0.01c-0.05,0-0.09,0.01-0.14,0.01c-0.1,0.02-0.21,0.04-0.32,0.07c-0.04,0.01-0.09,0.03-0.14,0.05
					c-0.04,0.01-0.08,0.03-0.13,0.04c-0.05,0.02-0.11,0.03-0.16,0.05c-0.16,0.07-0.33,0.15-0.5,0.25L80.1,136.67
					c-0.23,0.13-0.46,0.29-0.68,0.47c-0.07,0.06-0.14,0.12-0.21,0.18c-0.11,0.09-0.22,0.18-0.32,0.28c-0.05,0.05-0.09,0.1-0.14,0.14
					c-0.04,0.04-0.08,0.08-0.12,0.13c-0.05,0.05-0.09,0.1-0.14,0.15c-0.1,0.11-0.2,0.23-0.29,0.36c-0.03,0.04-0.06,0.09-0.1,0.13
					c-0.02,0.02-0.03,0.04-0.05,0.07c-0.03,0.04-0.06,0.08-0.09,0.13c-0.07,0.1-0.14,0.21-0.21,0.31c-0.06,0.1-0.13,0.2-0.19,0.3
					c0,0.01-0.01,0.02-0.01,0.03s-0.01,0.02-0.01,0.02c-0.05,0.08-0.1,0.17-0.14,0.25c-0.05,0.1-0.11,0.2-0.15,0.31
					c-0.05,0.09-0.09,0.19-0.13,0.28c0,0,0,0.01-0.01,0.01c0,0.01,0,0.01-0.01,0.02c-0.05,0.11-0.09,0.21-0.13,0.32
					s-0.08,0.23-0.12,0.34c-0.02,0.06-0.03,0.11-0.05,0.17c-0.01,0.02-0.01,0.05-0.02,0.07c-0.01,0.04-0.03,0.08-0.04,0.12
					c-0.04,0.14-0.07,0.28-0.1,0.41c-0.02,0.08-0.03,0.17-0.04,0.25c-0.01,0.04-0.02,0.09-0.02,0.13c-0.01,0.04-0.02,0.08-0.02,0.12
					c-0.03,0.24-0.05,0.47-0.05,0.7l0.24,85.15c0,1.49,0.8,2.87,2.09,3.61l0.82,0.52l-0.25-87.55c0-0.27,0.02-0.54,0.07-0.82
					c0.01-0.04,0.01-0.09,0.02-0.13c0.04-0.26,0.1-0.52,0.18-0.79c0.01-0.02,0.01-0.05,0.02-0.07c0.09-0.28,0.19-0.57,0.31-0.85
					c0,0,0-0.01,0.01-0.01c0.13-0.29,0.27-0.57,0.42-0.84c0-0.01,0.01-0.02,0.01-0.02c0.15-0.27,0.32-0.52,0.5-0.77
					c0.02-0.02,0.03-0.04,0.05-0.07c0.17-0.22,0.34-0.43,0.53-0.63c0.04-0.04,0.08-0.09,0.12-0.13c0.15-0.15,0.3-0.29,0.45-0.42
					c0.07-0.06,0.14-0.13,0.21-0.18c0.22-0.17,0.44-0.33,0.68-0.47L206.5,67.09c0.23-0.13,0.45-0.23,0.66-0.31
					C207.21,66.77,207.25,66.75,207.29,66.74z"/>
			</g>
		</g>
		<g>
			<g>
				<g>
					<path class="st22" d="M272.42,234.33c-4.09-2.36-10.71-2.37-14.78-0.01c-4.09,2.37-4.05,6.21,0.05,8.57
						c4.09,2.36,10.7,2.36,14.78-0.01C276.54,240.52,276.52,236.69,272.42,234.33z"/>
					<g>
						<g>
							<path class="st23" d="M261.27,241.37c0,0-3.7-2.41-3.8-2.99c-0.1-0.58,0.8-1.22,1.42-1.19c0.62,0.02,3.24,0.24,3.24,0.24
								l0.84,0.95C262.98,238.38,264.48,241.96,261.27,241.37z"/>
							<path class="st23" d="M269.37,238.34c0,0-3.7-2.41-3.8-2.99c-0.1-0.58,0.8-1.22,1.42-1.19c0.62,0.02,3.24,0.24,3.24,0.24
								l0.84,0.95C271.07,235.35,272.58,238.93,269.37,238.34z"/>
							<path class="st23" d="M260.06,207.71l-0.11,30.46c0,0,1.69,1.03,3.64-0.08c0,0,3.45-26.31,3.51-26.94
								c0.05-0.58,0.49,24.02,0.49,24.02s2.14,1.23,3.76-0.44l1.92-29.14L260.06,207.71z"/>
							<path class="st24" d="M271.42,196.57l0.21,5.36c0,0,4.2-2.22,4.1-5.47c-0.02-0.73-1.41-5.39-1.72-6.57
								C272.59,190.66,272.51,195.43,271.42,196.57z"/>
							<path class="st25" d="M263.09,184.95c0,0-1.56,0.34-3.58,1.99l0.54,20.77c0,0,2.62,1.92,7.98,0.52
								c4.37-1.14,5.51-2.98,5.51-2.98s-0.1-9.63-0.51-13.84c-0.41-4.21-1.62-7.44-1.62-7.44c-0.95-0.29-3.05-0.17-3.05-0.17
								L263.09,184.95z"/>
							<path class="st24" d="M267.93,183.69l0.12-4.06c0,0,1.02-0.08,0.85-1.2c-0.18-1.12-1.22-0.38-1.41-0.05
								c0,0-0.24-3.85-2.28-4.22s-2.89-0.07-2.94,0.92s-0.12,4.47,0,5.76s0,1.96,1.86,1.91l0.16,1.35c0,0,0.85,0.79,3.46,0.15
								L267.93,183.69z"/>
						</g>
					</g>
				</g>
				<path class="st26" d="M263.09,184.95c0.01-0.79,0.14-1.22,1.98-1.43c1.84-0.21,3.34-0.7,3.53,0s-0.18,1.14-2.03,1.3
					C264.73,184.97,263.09,184.95,263.09,184.95z"/>
				<path class="st23" d="M265.5,178.55c0.09-0.31,0.01-0.73-0.35-0.82c-0.28-0.06-0.51,0.07-0.69,0.29
					c-0.31,0.37-0.51,0.98-0.67,1.38c-0.19-0.16-0.38-0.32-0.58-0.47c0.01-0.12,0.02-0.24,0.02-0.37c0.02-0.3,0.04-0.61-0.03-0.9
					c-0.15-0.62-0.8-0.72-1.11-1.18c-0.42-0.62-0.24-1.51,0.16-2.11c0.42-0.62,1.09-1.04,1.81-1.27c2.43-0.8,6.07,0.99,5.36,3.95
					c-0.41,1.7-1,3.35-1.44,5.03c-0.06,0.22-0.56,0.31-0.78,0.24c-0.22-0.07-0.4-0.22-0.57-0.37c-0.8-0.73-1.46-1.6-1.95-2.56
					C264.72,179.5,265.46,178.68,265.5,178.55z"/>
			</g>
			<path class="st24" d="M259.6,208.67c0.05,0.25,0.24,0.51,0.5,0.52c0.3,0.01,0.49-0.3,0.62-0.57c0.08-0.17,0.17-0.34,0.25-0.51
				c0.07-0.14,0.14-0.29,0.12-0.44c-0.02-0.15-0.11-0.28-0.12-0.43c-0.01-0.29,0.3-0.49,0.38-0.76c0.1-0.33-0.15-0.65-0.38-0.9
				c-0.16-0.18-0.31-0.35-0.51-0.48c-0.78-0.5-1.49,0.39-1.34,1.16c0.07,0.34,0.3,0.65,0.4,0.99
				C259.67,207.73,259.51,208.19,259.6,208.67z"/>
			<path class="st24" d="M259.52,207.07c0,0-4.53-6.94-4.65-8.5c-0.13-1.55,3.74-9.7,3.74-9.7l2.98,3.32l-3.36,6.04l1.9,6.73
				L259.52,207.07z"/>
			<path class="st25" d="M260.64,195.88c0.36-0.91,0.65-1.8,0.73-2.53c0.38-3.43-1.86-6.4-1.86-6.4c-0.85,0.38-2.21,3.21-3.42,6.35
				C257.58,194.22,259.09,195.07,260.64,195.88z"/>
			<path class="st25" d="M274.87,190.83c-1.15-3.33-2.66-6.59-3.44-6.86l0.33,8.67C272.76,191.98,273.83,191.41,274.87,190.83z"/>
		</g>
		<g>
			<g class="st0">
				<g>
					<path class="st27" d="M100.38,145.89c-1.94,1.12-3.51,3.84-3.51,6.08c0.01,2.23,1.59,3.14,3.53,2.02s3.52-3.85,3.52-6.09
						C103.91,145.66,102.33,144.76,100.38,145.89"/>
					<path class="st25" d="M142.59,122.58l-34.86,20.13c-0.41,0.24-0.75,0.82-0.75,1.3v0.14c0,0.48,0.34,0.67,0.76,0.43l34.86-20.13
						c0.42-0.24,0.75-0.82,0.75-1.3v-0.14C143.35,122.54,143.01,122.34,142.59,122.58"/>
					<path class="st25" d="M116.37,142.39l-8.63,4.98c-0.41,0.24-0.75,0.82-0.75,1.3v0.13c0,0.48,0.34,0.68,0.76,0.44l8.63-4.98
						c0.41-0.24,0.75-0.82,0.75-1.31v-0.13C117.13,142.35,116.79,142.16,116.37,142.39"/>
					<path class="st25" d="M142.55,127.28l-22.97,13.26c-0.44,0.26-0.81,0.89-0.81,1.4s0.37,0.72,0.82,0.47l22.97-13.26
						c0.44-0.26,0.8-0.89,0.8-1.4C143.36,127.23,143,127.02,142.55,127.28"/>
					<path class="st25" d="M112.46,149.32l-4.64,2.68c-0.45,0.26-0.81,0.89-0.81,1.41s0.36,0.73,0.82,0.47l4.64-2.68
						c0.44-0.26,0.81-0.88,0.8-1.4C113.27,149.28,112.9,149.06,112.46,149.32"/>
					<path class="st27" d="M100.43,164.24c-1.94,1.12-3.51,3.84-3.51,6.08c0.01,2.23,1.59,3.13,3.53,2.01
						c1.94-1.12,3.52-3.85,3.52-6.08C103.96,164.02,102.38,163.12,100.43,164.24"/>
					<path class="st25" d="M142.64,140.94l-34.86,20.13c-0.41,0.24-0.75,0.82-0.75,1.3v0.14c0,0.48,0.34,0.67,0.76,0.43l34.86-20.13
						c0.42-0.24,0.75-0.82,0.75-1.3v-0.14C143.4,140.89,143.07,140.7,142.64,140.94"/>
					<path class="st25" d="M116.42,160.75l-8.63,4.98c-0.41,0.24-0.75,0.82-0.75,1.3v0.13c0,0.48,0.34,0.67,0.76,0.43l8.63-4.98
						c0.41-0.24,0.75-0.82,0.75-1.3v-0.13C117.18,160.7,116.84,160.51,116.42,160.75"/>
					<path class="st25" d="M142.6,145.64l-22.97,13.26c-0.44,0.26-0.81,0.89-0.81,1.4c0,0.52,0.37,0.72,0.82,0.47l22.97-13.26
						c0.44-0.26,0.8-0.88,0.8-1.4C143.41,145.59,143.05,145.38,142.6,145.64"/>
					<path class="st25" d="M112.51,167.68l-4.64,2.68c-0.45,0.26-0.81,0.89-0.81,1.4c0,0.52,0.36,0.73,0.82,0.47l4.64-2.68
						c0.44-0.26,0.81-0.88,0.8-1.4C113.32,167.64,112.96,167.42,112.51,167.68"/>
					<path class="st27" d="M100.49,182.6c-1.94,1.12-3.51,3.84-3.51,6.08c0.01,2.23,1.59,3.13,3.53,2.01s3.52-3.85,3.52-6.08
						C104.02,182.37,102.43,181.48,100.49,182.6"/>
					<path class="st25" d="M142.7,159.3l-34.86,20.13c-0.41,0.24-0.75,0.82-0.75,1.3v0.14c0,0.48,0.34,0.67,0.76,0.43l34.86-20.13
						c0.42-0.24,0.75-0.82,0.75-1.3v-0.14C143.45,159.25,143.12,159.05,142.7,159.3"/>
					<path class="st25" d="M116.48,179.1l-8.63,4.98c-0.41,0.24-0.75,0.82-0.75,1.31v0.13c0,0.48,0.34,0.67,0.76,0.43l8.63-4.98
						c0.41-0.24,0.75-0.82,0.75-1.3v-0.13C117.23,179.06,116.89,178.86,116.48,179.1"/>
					<path class="st25" d="M142.66,163.99l-22.97,13.26c-0.44,0.26-0.81,0.89-0.81,1.41s0.37,0.72,0.82,0.47l22.97-13.26
						c0.44-0.26,0.81-0.88,0.8-1.4C143.46,163.94,143.1,163.73,142.66,163.99"/>
					<path class="st25" d="M112.56,186.03l-4.64,2.68c-0.45,0.26-0.81,0.89-0.81,1.4c0,0.52,0.36,0.73,0.82,0.47l4.64-2.68
						c0.44-0.26,0.81-0.88,0.8-1.4C113.37,185.98,113.01,185.78,112.56,186.03"/>
					<path class="st27" d="M174.45,104.19l0.02,7.51c7.9-4.56,14.33-0.89,14.36,8.18l6.53-3.77
						C195.32,102.89,185.96,97.54,174.45,104.19"/>
					<path class="st25" d="M174.45,104.19c-11.51,6.65-20.81,22.76-20.78,35.99c0.02,6.62,2.36,11.26,6.15,13.42l4.6-7.98
						c-2.6-1.47-4.21-4.66-4.22-9.21c-0.03-9.07,6.36-20.14,14.26-24.71L174.45,104.19"/>
					<path class="st10" d="M195.36,116.11l-6.53,3.77c0.03,9.08-6.36,20.15-14.26,24.71c-3.96,2.28-7.53,2.5-10.13,1.02l-4.6,7.98
						c3.78,2.15,9,1.83,14.76-1.5C186.1,145.45,195.39,129.34,195.36,116.11"/>
					<path class="st25" d="M143.13,177.68l-37.92,21.89c-0.42,0.24-0.75,0.82-0.75,1.3v0.14c0,0.48,0.33,0.67,0.76,0.43l37.92-21.89
						c0.42-0.24,0.76-0.83,0.76-1.31v-0.14C143.89,177.63,143.55,177.44,143.13,177.68"/>
					<path class="st10" d="M99.23,203.02l-1.45,0.84c-0.41,0.24-0.75,0.82-0.75,1.3v0.14c0,0.48,0.34,0.67,0.76,0.43l1.45-0.84
						c0.41-0.24,0.75-0.82,0.75-1.3v-0.14C99.98,202.98,99.64,202.78,99.23,203.02"/>
					<path class="st25" d="M193.56,148.56l-37.92,21.89c-0.42,0.24-0.76,0.83-0.76,1.31v0.14c0,0.48,0.34,0.67,0.76,0.43
						l37.92-21.89c0.42-0.24,0.75-0.82,0.75-1.3V149C194.32,148.51,193.98,148.32,193.56,148.56"/>
					<path class="st10" d="M149.66,173.91l-1.45,0.84c-0.42,0.24-0.75,0.82-0.75,1.3v0.14c0,0.48,0.33,0.67,0.76,0.43l1.45-0.84
						c0.42-0.24,0.75-0.82,0.75-1.3v-0.14C150.41,173.86,150.08,173.66,149.66,173.91"/>
				</g>
			</g>
		</g>
		<g>
			<g class="st0">
				<g>
					<path class="st28" d="M100.42,72.58l4.84-5.51c-0.01-0.13-0.03-0.27-0.03-0.41c0-1.78,1.25-3.95,2.8-4.84s2.81-0.17,2.81,1.6
						c0,1.78-1.25,3.95-2.8,4.84c-0.78,0.45-1.5,0.49-2.01,0.18l-4.84,5.51c0.02,0.13,0.03,0.27,0.03,0.41
						c0.01,1.78-1.25,3.95-2.8,4.84c-0.31,0.18-0.61,0.29-0.89,0.35l-6.4,13.65c0.32,0.34,0.51,0.86,0.51,1.55
						c0,1.78-1.25,3.95-2.8,4.84s-2.81,0.17-2.81-1.6c0-0.54,0.12-1.12,0.32-1.69l-5.95-3.64c-0.37,0.41-0.78,0.77-1.21,1.02
						s-0.84,0.37-1.21,0.38l-5.91,10.49c0.21,0.33,0.33,0.77,0.33,1.31c0,1.78-1.25,3.95-2.8,4.84s-2.81,0.17-2.81-1.6
						c-0.01-1.78,1.25-3.95,2.8-4.84c0.44-0.25,0.84-0.37,1.21-0.38l5.91-10.49c-0.21-0.33-0.33-0.77-0.33-1.31
						c0-1.78,1.25-3.95,2.8-4.84s2.81-0.17,2.81,1.6c0,0.54-0.12,1.12-0.32,1.68l5.95,3.64c0.37-0.42,0.78-0.77,1.21-1.02
						c0.31-0.18,0.61-0.29,0.89-0.35l6.41-13.65c-0.32-0.34-0.51-0.87-0.51-1.56c0-1.77,1.25-3.94,2.8-4.84
						C99.2,72.31,99.91,72.27,100.42,72.58 M115.32,50.86L62.19,81.54c-0.72,0.42-1.3,1.43-1.3,2.26L61,120.91
						c0,0.83,0.59,1.16,1.31,0.75l53.13-30.68c0.72-0.42,1.31-1.43,1.31-2.26l-0.11-37.11C116.63,50.78,116.04,50.44,115.32,50.86"
						/>
					<path class="st12" d="M108.02,61.81c-1.55,0.89-2.8,3.06-2.8,4.84c0,0.14,0.01,0.28,0.03,0.41l-4.84,5.51
						c-0.51-0.31-1.22-0.27-2.01,0.18c-1.55,0.89-2.8,3.06-2.8,4.84c0,0.69,0.19,1.22,0.51,1.56L89.7,92.8
						c-0.28,0.06-0.58,0.17-0.89,0.35c-0.44,0.25-0.85,0.6-1.21,1.02l-5.95-3.64c0.2-0.57,0.32-1.14,0.32-1.68
						c-0.01-1.78-1.27-2.5-2.81-1.6c-1.55,0.89-2.8,3.06-2.8,4.84c0,0.54,0.12,0.98,0.33,1.31l-5.91,10.49
						c-0.37,0.01-0.78,0.13-1.21,0.38c-1.55,0.89-2.8,3.06-2.8,4.84c0.01,1.78,1.27,2.5,2.81,1.6c1.55-0.89,2.8-3.06,2.8-4.84
						c0-0.54-0.12-0.98-0.33-1.31l5.91-10.49c0.37-0.01,0.78-0.13,1.21-0.38c0.44-0.25,0.85-0.61,1.21-1.02l5.95,3.64
						c-0.2,0.57-0.32,1.15-0.32,1.69c0.01,1.78,1.27,2.5,2.81,1.6c1.55-0.89,2.8-3.06,2.8-4.84c0-0.69-0.2-1.21-0.51-1.55
						l6.41-13.66c0.28-0.05,0.58-0.17,0.89-0.35c1.55-0.89,2.8-3.06,2.8-4.84c0-0.14-0.01-0.28-0.03-0.41l4.84-5.51
						c0.51,0.3,1.22,0.27,2.01-0.18c1.55-0.89,2.8-3.06,2.8-4.84C110.83,61.63,109.57,60.91,108.02,61.81"/>
				</g>
			</g>
		</g>
		<g>
			<g class="st0">
				<g>
					<path class="st28" d="M43.04,155.66c-0.23,0.13-0.42,0.03-0.42-0.24s0.19-0.59,0.42-0.72l1.77-1.02
						c0.23-0.13,0.42-0.03,0.42,0.24s-0.19,0.59-0.42,0.72L43.04,155.66 M46.59,153.61c-0.23,0.13-0.42,0.03-0.42-0.24
						s0.19-0.59,0.42-0.72l1.77-1.02c0.23-0.13,0.42-0.03,0.42,0.24s-0.19,0.59-0.42,0.72L46.59,153.61 M43.03,152.29
						c-0.23,0.13-0.42,0.03-0.42-0.24s0.19-0.59,0.42-0.72l15.36-8.87c0.23-0.13,0.42-0.03,0.42,0.24s-0.19,0.59-0.42,0.72
						L43.03,152.29 M43.02,148.92c-0.23,0.13-0.42,0.03-0.42-0.24s0.19-0.59,0.42-0.72l8.62-4.98c0.23-0.14,0.42-0.03,0.42,0.24
						s-0.19,0.59-0.42,0.73L43.02,148.92 M53.44,142.9c-0.23,0.13-0.42,0.03-0.42-0.24s0.19-0.59,0.42-0.72l1.08-0.62
						c0.23-0.13,0.42-0.03,0.42,0.24s-0.19,0.59-0.42,0.72L53.44,142.9 M56.4,141.19c-0.23,0.13-0.42,0.03-0.42-0.24
						s0.19-0.59,0.42-0.72l7.04-4.06c0.23-0.13,0.42-0.03,0.42,0.24s-0.19,0.59-0.42,0.72L56.4,141.19 M43.01,145.55
						c-0.23,0.13-0.42,0.03-0.42-0.24s0.19-0.59,0.42-0.72l14.65-8.46c0.23-0.13,0.42-0.03,0.42,0.24s-0.19,0.59-0.42,0.72
						L43.01,145.55 M59.49,136.03c-0.23,0.13-0.42,0.03-0.42-0.24s0.19-0.59,0.42-0.72l3.93-2.27c0.23-0.13,0.42-0.03,0.42,0.24
						s-0.19,0.59-0.42,0.72L59.49,136.03 M37.58,149.96c-0.68,0.39-1.23,0.08-1.23-0.7s0.55-1.73,1.22-2.12
						c0.68-0.39,1.23-0.08,1.23,0.7C38.81,148.62,38.26,149.57,37.58,149.96 M65.91,128.2l-31.39,18.12
						c-0.53,0.31-0.95,1.04-0.95,1.65l0.04,15.27c0,0.6,0.43,0.85,0.96,0.55l31.39-18.12c0.53-0.31,0.95-1.04,0.95-1.65l-0.04-15.27
						C66.86,128.14,66.44,127.89,65.91,128.2"/>
					<path class="st12" d="M57.66,136.12l-14.65,8.46c-0.23,0.13-0.42,0.45-0.42,0.72s0.19,0.37,0.42,0.24l14.65-8.46
						c0.23-0.13,0.42-0.46,0.42-0.72C58.08,136.09,57.89,135.99,57.66,136.12"/>
					<path class="st12" d="M51.64,142.97l-8.62,4.98c-0.23,0.13-0.42,0.46-0.42,0.72c0,0.27,0.19,0.37,0.42,0.24l8.62-4.98
						c0.23-0.14,0.42-0.46,0.42-0.73C52.07,142.95,51.88,142.84,51.64,142.97"/>
					<path class="st12" d="M58.39,142.46l-15.36,8.87c-0.23,0.13-0.42,0.45-0.42,0.72s0.19,0.37,0.42,0.24l15.36-8.87
						c0.23-0.13,0.42-0.46,0.42-0.72C58.81,142.43,58.62,142.32,58.39,142.46"/>
					<path class="st12" d="M44.81,153.68l-1.77,1.02c-0.23,0.13-0.42,0.46-0.42,0.72c0,0.27,0.19,0.37,0.42,0.24l1.77-1.02
						c0.23-0.13,0.42-0.46,0.42-0.72C45.23,153.65,45.04,153.54,44.81,153.68"/>
					<path class="st12" d="M54.52,141.32l-1.08,0.62c-0.23,0.13-0.42,0.46-0.42,0.72c0,0.27,0.19,0.37,0.42,0.24l1.08-0.62
						c0.23-0.13,0.42-0.46,0.42-0.72C54.94,141.29,54.75,141.18,54.52,141.32"/>
					<path class="st12" d="M63.43,136.17l-7.04,4.06c-0.23,0.13-0.42,0.46-0.42,0.72c0,0.27,0.19,0.37,0.42,0.24l7.04-4.06
						c0.23-0.13,0.42-0.46,0.42-0.72C63.85,136.14,63.66,136.03,63.43,136.17"/>
					<path class="st12" d="M63.42,132.8l-3.93,2.27c-0.23,0.13-0.42,0.45-0.42,0.72s0.19,0.37,0.42,0.24l3.93-2.27
						c0.23-0.13,0.42-0.46,0.42-0.72C63.84,132.77,63.65,132.66,63.42,132.8"/>
					<path class="st12" d="M37.57,147.14c-0.68,0.39-1.23,1.34-1.22,2.12c0,0.78,0.55,1.09,1.23,0.7s1.23-1.34,1.23-2.12
						C38.81,147.06,38.25,146.75,37.57,147.14"/>
					<path class="st12" d="M48.36,151.63l-1.77,1.02c-0.23,0.13-0.42,0.46-0.42,0.72c0,0.27,0.19,0.37,0.42,0.24l1.77-1.02
						c0.23-0.13,0.42-0.46,0.42-0.72C48.78,151.6,48.59,151.49,48.36,151.63"/>
				</g>
			</g>
		</g>
		<g>
			<g>
				
					<linearGradient id="SVGID_11_" gradientUnits="userSpaceOnUse" x1="134.4427" y1="288.5986" x2="107.2717" y2="249.077" gradientTransform="matrix(1 0 0 -1 0 634)">
					<stop  offset="0" style="stop-color:#144188"/>
					<stop  offset="0.9975" style="stop-color:#1A7CDE"/>
				</linearGradient>
				<polygon style="fill:url(#SVGID_11_);" points="158.45,401.01 158.45,363.65 87.75,322.79 87.75,360.15 				"/>
				
					<linearGradient id="SVGID_12_" gradientUnits="userSpaceOnUse" x1="120.1876" y1="297.9791" x2="58.4349" y2="287.4812" gradientTransform="matrix(1 0 0 -1 0 634)">
					<stop  offset="0.1531" style="stop-color:#144188"/>
					<stop  offset="0.9975" style="stop-color:#1A7CDE"/>
				</linearGradient>
				<polygon style="fill:url(#SVGID_12_);" points="87.93,322.89 87.75,322.99 87.75,360.15 120.07,341.47 				"/>
			</g>
			<g>
				
					<linearGradient id="SVGID_13_" gradientUnits="userSpaceOnUse" x1="134.4413" y1="232.9564" x2="107.2703" y2="193.4349" gradientTransform="matrix(1 0 0 -1 0 634)">
					<stop  offset="0" style="stop-color:#144188"/>
					<stop  offset="0.9975" style="stop-color:#1A7CDE"/>
				</linearGradient>
				<polygon class="st16" points="158.45,456.65 158.45,419.29 87.75,378.43 87.75,415.79 				"/>
				
					<linearGradient id="SVGID_14_" gradientUnits="userSpaceOnUse" x1="120.1871" y1="242.339" x2="58.4344" y2="231.8411" gradientTransform="matrix(1 0 0 -1 0 634)">
					<stop  offset="0.1531" style="stop-color:#144188"/>
					<stop  offset="0.9975" style="stop-color:#1A7CDE"/>
				</linearGradient>
				<polygon class="st21" points="87.93,378.53 87.75,378.63 87.75,415.79 120.07,397.11 				"/>
			</g>
			<g>
				
					<linearGradient id="SVGID_15_" gradientUnits="userSpaceOnUse" x1="134.4421" y1="177.3126" x2="107.2711" y2="137.791" gradientTransform="matrix(1 0 0 -1 0 634)">
					<stop  offset="0" style="stop-color:#144188"/>
					<stop  offset="0.9975" style="stop-color:#1A7CDE"/>
				</linearGradient>
				<polygon class="st29" points="158.45,512.29 158.45,474.93 87.75,434.08 87.75,471.44 				"/>
				
					<linearGradient id="SVGID_16_" gradientUnits="userSpaceOnUse" x1="120.1882" y1="186.6892" x2="58.4355" y2="176.1913" gradientTransform="matrix(1 0 0 -1 0 634)">
					<stop  offset="0.1531" style="stop-color:#144188"/>
					<stop  offset="0.9975" style="stop-color:#1A7CDE"/>
				</linearGradient>
				<polygon class="st30" points="87.93,434.18 87.75,434.28 87.75,471.44 120.07,452.76 				"/>
			</g>
		</g>
		<g>
			<g class="st0">
				<g>
					<polyline class="st35" points="319.18,120.72 268.22,91.29 268.14,121.42 319.1,150.84 319.18,120.72 					"/>
					<polyline class="st35" points="319.78,154.63 288.16,136.37 288.13,147.57 319.75,165.82 319.78,154.63 					"/>
					<polyline class="st35" points="311.4,94.48 301.66,88.86 301.63,100.05 311.37,105.67 311.4,94.48 					"/>
					<path class="st35" d="M241.26,65.59c0,0,3.6-13.78,8.75-10.81c5.15,2.98,6.18,14.7,10.23,17.04s4.27-4.61,6.78-3.16
						c2.5,1.44,2.52,9.06,5.13,10.57c2.61,1.51,4.47-4.72,8.72-2.27c5.26,3.03,8.3,16.29,8.3,16.29L241.26,65.59 M292.7,69.3
						l-54.83-31.66l-0.09,32.69l54.83,31.66L292.7,69.3"/>
					<path class="st36" d="M250.01,54.78c-5.15-2.98-8.75,10.81-8.75,10.81l47.92,27.66c0,0-3.05-13.26-8.3-16.29
						c-4.25-2.46-6.11,3.77-8.72,2.27c-2.62-1.51-2.63-9.12-5.13-10.57s-2.73,5.5-6.78,3.16C256.18,69.48,255.16,57.75,250.01,54.78
						"/>
					<path class="st35" d="M248.63,108.31l0.01-5.25l0.01-5.25l3.95,4.91l3.95,4.92l-3.97,0.34L248.63,108.31 M251.85,90.51
						c-6.89-3.98-12.49-0.79-12.52,7.13c-0.02,7.92,5.55,17.57,12.44,21.55s12.5,0.78,12.52-7.14S258.74,94.49,251.85,90.51"/>
					<polyline class="st37" points="248.66,97.81 248.65,103.06 248.63,108.31 252.6,107.97 256.57,107.63 252.62,102.72 
						248.66,97.81 					"/>
					<path class="st35" d="M238.3,128.33c-1.54-0.89-2.79-3.06-2.79-4.83c0.01-1.78,1.26-2.49,2.81-1.6s2.8,3.06,2.79,4.84
						C241.1,128.51,239.84,129.22,238.3,128.33 M257.81,126.56l-31.24-18.04l-0.06,22.73l31.24,18.04l-31.24-18.04l0.01-3.49
						l5.8-3.3l5.87,10.17l11.85-6.75l7.73,13.39L257.81,126.56"/>
					<polyline class="st36" points="250.04,127.87 238.19,134.62 232.32,124.45 226.52,127.75 226.51,131.24 257.75,149.28 
						257.77,141.26 250.04,127.87 					"/>
					<path class="st36" d="M238.32,121.9c-1.54-0.89-2.8-0.17-2.81,1.6s1.25,3.94,2.79,4.83c1.55,0.89,2.81,0.18,2.81-1.6
						C241.11,124.96,239.86,122.79,238.32,121.9"/>
				</g>
			</g>
		</g>
	</g>
</g>
</svg>
