<?xml version="1.0" encoding="utf-8"?>
<!-- Generator: Adobe Illustrator 23.0.1, SVG Export Plug-In . SVG Version: 6.00 Build 0)  -->
<svg version="1.1" id="Layer_1" xmlns="http://www.w3.org/2000/svg" xmlns:xlink="http://www.w3.org/1999/xlink" x="0px" y="0px"
	 viewBox="0 0 141.07 754.59" style="enable-background:new 0 0 141.07 754.59;" xml:space="preserve">
<style type="text/css">
	.st0{enable-background:new    ;}
	.st1{fill:url(#SVGID_1_);}
	.st2{fill:url(#SVGID_2_);}
	.st3{fill:url(#SVGID_3_);}
	.st4{fill:url(#SVGID_4_);}
	.st5{opacity:0.5608;fill:url(#SVGID_5_);enable-background:new    ;}
	.st6{fill:url(#SVGID_6_);}
	.st7{fill:url(#SVGID_7_);}
	.st8{fill:url(#SVGID_8_);}
	.st9{fill:#FF65EB;}
	.st10{fill:#FF20CE;}
	.st11{opacity:0.5608;fill:url(#SVGID_9_);enable-background:new    ;}
	.st12{fill:#A5FFFF;}
	.st13{opacity:0.5608;fill:url(#SVGID_10_);enable-background:new    ;}
	.st14{opacity:0.5608;fill:url(#SVGID_11_);enable-background:new    ;}
	.st15{opacity:0.5608;fill:url(#SVGID_12_);enable-background:new    ;}
	.st16{fill:url(#SVGID_13_);}
	.st17{fill:#193164;}
	.st18{fill:#1A6CBE;}
	.st19{fill:#102465;}
	.st20{fill:#00154F;}
	.st21{fill:url(#SVGID_14_);}
	.st22{fill:#1A9BDB;}
	.st23{fill:#103450;}
	.st24{fill:#FFC6A0;}
	.st25{fill:#FDF7FB;}
	.st26{fill:#FFFFFF;}
	.st27{fill:#00EDF9;}
	.st28{opacity:0.6;fill:#00EDF9;enable-background:new    ;}
	.st29{fill:url(#SVGID_15_);}
	.st30{fill:url(#SVGID_16_);}
	.st31{fill:url(#SVGID_17_);}
	.st32{fill:url(#SVGID_18_);}
	.st33{fill:url(#SVGID_19_);}
	.st34{fill:url(#SVGID_20_);}
	.st35{opacity:0.5608;fill:#A5FFFF;enable-background:new    ;}
	.st36{fill:#B4FFFF;}
	.st37{opacity:0.8078;fill:#B8FFFF;enable-background:new    ;}
	.st38{fill:url(#SVGID_21_);}
	.st39{fill:url(#SVGID_22_);}
	.st40{fill:url(#SVGID_23_);}
	.st41{fill:#162A56;}
	.st42{fill:url(#SVGID_24_);}
	.st43{fill:#165DA4;}
	.st44{opacity:0.3;}
	.st45{opacity:0.5608;fill:url(#SVGID_25_);}
	.st46{opacity:0.6;fill:#00EDF9;}
	.st47{opacity:0.5608;fill:url(#SVGID_26_);}
	.st48{fill:url(#SVGID_27_);}
	.st49{fill:url(#SVGID_28_);}
	.st50{fill:url(#SVGID_29_);}
	.st51{opacity:0.4;fill:#1A9BDB;}
	.st52{fill:#011C63;}
	.st53{fill:#FCFEFB;}
	.st54{opacity:0.6;}
	.st55{fill:url(#SVGID_30_);}
	.st56{fill:url(#SVGID_31_);}
	.st57{fill:url(#SVGID_32_);}
	.st58{opacity:0.5608;fill:url(#SVGID_33_);}
	.st59{fill:url(#SVGID_34_);}
	.st60{fill:url(#SVGID_35_);}
	.st61{fill:url(#SVGID_36_);}
</style>
<g>
	<linearGradient id="SVGID_1_" gradientUnits="userSpaceOnUse" x1="70.4063" y1="18.8895" x2="70.7222" y2="159.9634">
		<stop  offset="0.0373" style="stop-color:#93FFFD;stop-opacity:0"/>
		<stop  offset="0.6222" style="stop-color:#A5FDFE;stop-opacity:0.6076"/>
		<stop  offset="1" style="stop-color:#B2FBFF"/>
	</linearGradient>
	<polygon style="opacity:0.5608;fill:url(#SVGID_1_);" points="0,0 0,154.73 70.69,195.59 141.07,154.73 141.07,0 	"/>
	<g>
		<g>
			<g class="st0">
				<g>
					<linearGradient id="SVGID_2_" gradientUnits="userSpaceOnUse" x1="81.7662" y1="87.6255" x2="59.3429" y2="151.0291">
						<stop  offset="0" style="stop-color:#89DAF4"/>
						<stop  offset="1" style="stop-color:#008DD7"/>
					</linearGradient>
					<polygon class="st2" points="141.07,119.38 70.69,160.23 0,119.38 70.69,78.52 					"/>
				</g>
				<linearGradient id="SVGID_3_" gradientUnits="userSpaceOnUse" x1="70.6905" y1="436.9817" x2="141.0743" y2="436.9817">
					<stop  offset="0" style="stop-color:#144188"/>
					<stop  offset="0.9975" style="stop-color:#1A7CDE"/>
				</linearGradient>
				<polygon class="st3" points="141.07,119.38 141.07,713.73 70.69,754.59 70.69,160.23 				"/>
				<linearGradient id="SVGID_4_" gradientUnits="userSpaceOnUse" x1="0" y1="436.982" x2="70.6905" y2="436.982">
					<stop  offset="0" style="stop-color:#144188"/>
					<stop  offset="0.998" style="stop-color:#102465"/>
				</linearGradient>
				<polygon class="st4" points="70.69,160.23 70.69,754.59 0,713.73 0,119.38 				"/>
			</g>
		</g>
		<polygon class="st9" points="70.69,168.97 141.07,128.11 141.07,126.41 70.69,167.27 		"/>
		<polygon class="st10" points="0,128.11 70.69,168.97 70.69,167.27 0,126.41 		"/>
	</g>
	<g>
		<path class="st51" d="M100.34,134.76c-4.09-2.36-10.71-2.37-14.78-0.01c-4.09,2.37-4.05,6.21,0.05,8.57
			c4.09,2.36,10.7,2.36,14.78-0.01C104.46,140.95,104.44,137.12,100.34,134.76z"/>
		<path class="st23" d="M100.57,160.75c0,0-0.53,0.07-0.63,0.27c-0.1,0.21-0.15,1.97-0.14,2.21c0,0,1.41,1.38,2.72,2.06
			c1.32,0.68,2.45,0.97,2.96,0.53c0.51-0.44,0.19-0.96-0.89-1.84c-1.08-0.88-2.13-3.24-2.13-3.23
			C102.46,160.75,100.57,160.75,100.57,160.75z"/>
		<path class="st23" d="M103.22,155.35c0,0-0.53-0.07-0.68,0.1c-0.15,0.17-0.65,1.87-0.7,2.1c0,0,1.01,1.7,2.11,2.68
			c1.1,0.99,2.13,1.56,2.73,1.26c0.6-0.3,0.43-0.87-0.39-2s-1.24-3.67-1.24-3.67C105.05,155.83,103.22,155.35,103.22,155.35z"/>
		<path class="st23" d="M85.74,133.27c-0.04,2.5,0.28,6.48,1.57,7.37c1.97,1.35,10.05,7.56,10.05,7.56l2.2,12.78
			c0,0,1.37,1.36,3.5,0c0,0-1.43-14.37-1.74-15.63c-0.31-1.26-7.78-9.38-7.78-9.38L85.74,133.27z"/>
		<path class="st23" d="M92.51,131.96c-0.68,2.41-1.15,5.26-0.05,6.38c1.19,1.21,13.45,4.87,13.45,4.87l-3.63,12.21
			c0,0,0.98,1.66,3.39,0.89c0,0,6.54-13.96,6.56-15.26c0.02-1.3-12.35-7.29-12.35-7.29L92.51,131.96z"/>
		<g>
			<g>
				<g class="st0">
					<g>
						<path class="st52" d="M112.22,137.18l-12,6.97c0.04-0.02,0.06-0.07,0.06-0.13l12-6.97
							C112.28,137.11,112.26,137.16,112.22,137.18z"/>
					</g>
					<g>
						<polygon class="st52" points="100.28,143.77 112.28,136.79 112.28,137.05 100.28,144.03 						"/>
					</g>
					<g>
						<polygon class="st53" points="91.25,138.46 103.25,131.48 112.21,136.65 100.2,143.63 						"/>
					</g>
					<g>
						<path class="st23" d="M109.56,136.31c0.18,0.1,0.19,0.28,0,0.39l-9.02,5.24c-0.18,0.1-0.49,0.1-0.67,0l-3.41-1.97
							c-0.18-0.1-0.17-0.28,0.01-0.38l9.02-5.24c0.19-0.11,0.48-0.11,0.66-0.01L109.56,136.31z"/>
					</g>
					<path class="st53" d="M100.73,144.03l3.72-6.57l12-6.97l-3.72,6.57c-0.01,0.02-0.02,0.03-0.04,0.04l-12,6.97
						C100.71,144.06,100.72,144.05,100.73,144.03z"/>
					<g>
						<path class="st53" d="M104.17,136.62l0.1,0.11c0.2,0.23,0.28,0.56,0.18,0.73l-3.72,6.57c-0.14,0.3-0.54,0.18-0.65,0.11
							l-8.42-4.86c-0.23-0.13-0.41-0.45-0.41-0.71l0-0.12l8.96,5.17L104.17,136.62z"/>
					</g>
					<path class="st53" d="M104.17,136.62l12-6.97l0.1,0.11c0.2,0.23,0.28,0.56,0.18,0.73l-12,6.97c0.1-0.17,0.02-0.5-0.18-0.73
						L104.17,136.62z"/>
				</g>
			</g>
			<g>
				<path class="st23" d="M103.07,134.55c0.08,0.05,0.08,0.12,0,0.17l-2.98,1.73c-0.08,0.05-0.21,0.05-0.29,0l-1.49-0.86
					c-0.08-0.05-0.08-0.12,0-0.17l2.98-1.73c0.08-0.05,0.21-0.05,0.29,0L103.07,134.55z"/>
			</g>
		</g>
		<path class="st24" d="M98.12,121.42c0,0,1.32,3.35,1.59,4.26c0.27,0.91,3.38,6.39,3.56,6.67c0.18,0.28,2.47,2.1,2.47,2.38
			c0,0.27-0.18,0.79-0.91,0.88c-0.73,0.08-2.7-1.34-2.7-1.34s-0.5,1.26-0.71-0.25c-0.21-1.52,0.38-1.28-0.12-2.06
			c0,0-3.29-2.2-4.06-5.04c-0.78-2.83-0.09-5.21-0.09-5.21L98.12,121.42z"/>
		<path class="st53" d="M99.11,121.94c-0.61-2.81-1.88-6.49-3.08-6.64l1.11,8.03C97.14,123.33,98.25,122.97,99.11,121.94z"/>
		<path class="st53" d="M88.48,116.19c0,0-2.06,0.76-3.88,2.25l1.14,16c0,0,2.37,1.74,7.23,0.47c3.95-1.03,4.99-2.7,4.99-2.7
			s0.36-7.84-0.01-11.66c-0.37-3.81-1.92-5.26-1.92-5.26c-0.86-0.26-2.77-0.15-2.77-0.15L88.48,116.19z"/>
		<path class="st23" d="M93.85,105.32c0,0-2.56-0.63-5.05,0.31c-2.49,0.93-1.04,4.49-0.3,6.16c0.73,1.67,1.24,1.07,1.24,1.07
			l5.43-2.19c0,0,0.16-0.17,0.06-2.44C95.12,105.95,93.85,105.32,93.85,105.32z"/>
		<path class="st24" d="M89.28,115.31l-0.11-3.68c0,0-0.93-0.07-0.77-1.08c0.16-1.01,1.11-0.35,1.27-0.05c0,0,0.21-3.49,2.06-3.82
			c1.85-0.33,3.64,0.06,3.69,0.96c0.05,0.9,0.11,4.04,0,5.21c-0.11,1.17-1.02,1.65-2.71,1.6l0.12,1.89c0,0-0.85,0.62-3.21,0.04
			L89.28,115.31z"/>
		<path class="st23" d="M92.74,114.84c0,0,0.32-0.01,0.45,0.07c0.13,0.07,0.8,0.75,0.82,1.49c0.02,0.74-0.29,1.6-0.29,1.6
			l-1.53-1.38l-0.96,1.86c0,0-0.6-0.12-1.42-0.74c-0.82-0.62-1.32-1.54-1.32-1.54c0.26-0.67,0.44-1.07,0.44-1.07
			c0.06-0.15,0.35-0.23,0.35-0.23s1.63,1.48,2.91,1.55C92.19,116.45,92.65,116.23,92.74,114.84z"/>
		<path class="st53" d="M85.53,126.74c0.49-1.24,1.57-4.25,1.27-5.83c-0.38-2.02-2.2-2.47-2.2-2.47c-0.76,0.87-1.87,3.75-2.6,6.15
			C83.19,125.29,84.35,126.04,85.53,126.74z"/>
		<path class="st23" d="M97.43,106.13c-0.11-0.35-0.28-0.69-0.52-0.98c-1.24-1.52-3.04-0.63-4.64-0.91
			c-0.39-0.07-0.71-0.25-1.12-0.27c-0.98-0.04-2.06,0.49-2.46,1.42c-0.07,0.16-0.14,0.34-0.2,0.52c-0.1,0.28-0.17,0.58-0.17,0.86
			c-0.01,0.61,0.27,1.18,0.33,1.78c0.09,0.87,0.59,1.8,1.06,2.62c0.14-0.04,0.29-0.08,0.43-0.12c-0.04-0.38,0.08-0.8,0.25-1.16
			c0.27-0.58,0.53-1.21,0.19-1.82c0.95,0.49,1.12,0.55,2.23,0.34c0.69-0.13,1.37,0.21,2.02,0.48c0.65,0.27,1.44,0.46,2.02,0.07
			c0.45-0.3,0.65-0.87,0.71-1.4C97.62,107.1,97.58,106.6,97.43,106.13z"/>
		<path class="st24" d="M83.09,125.25c0,0-0.83,4.24-0.1,5.09c0.73,0.85,7.68,4.99,8.25,5.59c0.57,0.59,2.49,2.24,3.78,2.21
			c1.29-0.03,1.95,1.19,2.59,1.31c0.65,0.12,0.55-1.54,0.36-2.18c-0.23-0.76-1.78-0.9-1.78-0.9s1.67-0.82-0.95-0.48l-1.52-0.25
			l-7.67-7.35l0.15-1.26L83.09,125.25z"/>
	</g>
	<g class="st54">
		<path class="st27" d="M50.08,106.39l-0.02-7.35l5-2.89l0.02,7.35L50.08,106.39 M69.11,95.4l-0.03-11.06l5-2.89l0.03,11.06
			L69.11,95.4 M50.06,99.03l-0.01-4.55l5-2.89l0.01,4.55L50.06,99.03 M59.6,100.89l-0.04-12.88l4.99-2.88l0.04,12.88L59.6,100.89
			 M78.63,89.91l-0.05-17.43l5-2.89l0.05,17.43L78.63,89.91 M69.08,84.33l-0.02-6.85l5-2.89l0.02,6.85L69.08,84.33 M59.56,88.01
			l-0.02-7.98l4.99-2.88l0.02,7.98L59.56,88.01 M78.58,72.47l-0.03-10.79l5-2.89l0.03,10.79L78.58,72.47 M46.38,113.26
			c-0.22,0.13-0.4,0.03-0.4-0.22l-0.1-34.73c0-0.26,0.18-0.57,0.4-0.69c0.22-0.13,0.4-0.02,0.4,0.23l0.1,34.27l43.73-25.25
			c0.22-0.13,0.4-0.03,0.4,0.23c0,0.25-0.18,0.56-0.4,0.69L46.38,113.26 M54.98,67.85c-0.44,0.25-0.8,0.05-0.8-0.46
			s0.36-1.12,0.8-1.38l12.76-7.37c0.44-0.25,0.8-0.05,0.8,0.46c0,0.51-0.36,1.12-0.8,1.38L54.98,67.85 M70.44,58.92
			c-0.44,0.25-0.8,0.05-0.8-0.46c0-0.51,0.35-1.12,0.8-1.38l2.94-1.7c0.44-0.25,0.8-0.05,0.8,0.46c0,0.51-0.35,1.12-0.8,1.38
			L70.44,58.92 M46.27,73.04l-0.01-2.16l4.79-2.76l0.01,2.16L46.27,73.04 M63.5,58.33c-0.22,0.13-0.42,0.14-0.57,0.06
			c-0.15-0.08-0.23-0.27-0.23-0.51l0.02-0.19l0.04-0.19l0.08-0.21l0.1-0.19c0.15-0.26,0.36-0.46,0.57-0.58
			c0.21-0.12,0.42-0.16,0.57-0.07l0.1,0.08l0.07,0.12l0.05,0.14l0.01,0.18c0,0.24-0.08,0.52-0.23,0.78
			C63.91,57.99,63.71,58.21,63.5,58.33 M54.97,63.26c-0.44,0.25-0.8,0.05-0.8-0.46c0-0.51,0.35-1.12,0.8-1.38l6.18-3.57
			c0.44-0.25,0.8-0.05,0.8,0.46c0,0.51-0.35,1.12-0.8,1.38L54.97,63.26 M65.97,56.91c-0.44,0.25-0.8,0.05-0.8-0.46
			c0-0.51,0.36-1.12,0.8-1.38l7.41-4.28c0.44-0.25,0.8-0.05,0.8,0.46c0,0.51-0.35,1.12-0.8,1.38L65.97,56.91 M46.25,68.45
			l-0.01-2.16l4.79-2.76l0.01,2.16L46.25,68.45 M93.93,32.29L42.03,62.25c-1.33,0.77-2.4,2.63-2.39,4.14l0.16,55.05
			c0,1.52,1.08,2.13,2.41,1.37L94.1,92.84c1.33-0.77,2.4-2.62,2.39-4.14l-0.16-55.05C96.33,32.14,95.26,31.52,93.93,32.29"/>
		<path class="st12" d="M46.28,77.62c-0.22,0.13-0.4,0.44-0.4,0.69l0.1,34.73c0,0.25,0.18,0.35,0.4,0.22l44.13-25.48
			c0.22-0.13,0.4-0.44,0.4-0.69c0-0.26-0.18-0.36-0.4-0.23l-43.73,25.25l-0.1-34.27C46.67,77.59,46.5,77.49,46.28,77.62"/>
		<polyline class="st25" points="55.06,96.15 50.06,99.03 50.08,106.39 55.08,103.5 55.06,96.15 		"/>
		<polyline class="st25" points="64.56,85.12 59.56,88.01 59.6,100.89 64.59,98.01 64.56,85.12 		"/>
		<polyline class="st25" points="74.08,81.45 69.08,84.33 69.11,95.4 74.11,92.51 74.08,81.45 		"/>
		<polyline class="st25" points="83.58,69.59 78.58,72.47 78.63,89.91 83.63,87.02 83.58,69.59 		"/>
		<polyline class="st12" points="55.05,91.6 50.05,94.49 50.06,99.03 55.06,96.15 55.05,91.6 		"/>
		<polyline class="st12" points="64.53,77.14 59.54,80.03 59.56,88.01 64.56,85.12 64.53,77.14 		"/>
		<polyline class="st12" points="74.06,74.6 69.06,77.48 69.08,84.33 74.08,81.45 74.06,74.6 		"/>
		<polyline class="st12" points="83.55,58.8 78.55,61.68 78.58,72.47 83.58,69.59 83.55,58.8 		"/>
		<polyline class="st25" points="51.03,63.53 46.25,66.3 46.25,68.45 51.04,65.69 51.03,63.53 		"/>
		<polyline class="st25" points="51.05,68.12 46.26,70.89 46.27,73.04 51.05,70.28 51.05,68.12 		"/>
		<path class="st12" d="M61.14,57.86l-6.18,3.57c-0.44,0.25-0.8,0.87-0.8,1.38c0,0.51,0.36,0.71,0.8,0.46l6.18-3.57
			c0.44-0.25,0.8-0.87,0.8-1.38C61.94,57.81,61.58,57.6,61.14,57.86"/>
		<path class="st12" d="M63.49,56.51c-0.21,0.12-0.42,0.33-0.57,0.58l-0.1,0.19l-0.08,0.21l-0.04,0.19l-0.02,0.19
			c0,0.24,0.08,0.43,0.23,0.51c0.15,0.08,0.35,0.07,0.57-0.06c0.22-0.13,0.41-0.34,0.57-0.6c0.15-0.25,0.23-0.54,0.23-0.78
			l-0.01-0.18l-0.05-0.14l-0.07-0.12l-0.1-0.08C63.91,56.35,63.7,56.39,63.49,56.51"/>
		<path class="st12" d="M73.37,50.8l-7.41,4.28c-0.44,0.25-0.8,0.87-0.8,1.38c0,0.51,0.36,0.71,0.8,0.46l7.41-4.28
			c0.44-0.25,0.8-0.87,0.8-1.38C74.17,50.75,73.81,50.54,73.37,50.8"/>
		<path class="st12" d="M67.74,58.65l-12.76,7.37c-0.44,0.25-0.8,0.87-0.8,1.38s0.36,0.71,0.8,0.46l12.76-7.37
			c0.44-0.25,0.8-0.87,0.8-1.38C68.54,58.6,68.18,58.39,67.74,58.65"/>
		<path class="st12" d="M73.38,55.39l-2.94,1.7c-0.44,0.25-0.8,0.87-0.8,1.38c0,0.51,0.36,0.71,0.8,0.46l2.94-1.7
			c0.44-0.25,0.8-0.87,0.8-1.38C74.18,55.34,73.82,55.14,73.38,55.39"/>
	</g>
</g>
</svg>
